<?xml version="1.0" standalone="no"?>
<!DOCTYPE svg PUBLIC "-//W3C//DTD SVG 1.1//EN" "http://www.w3.org/Graphics/SVG/1.1/DTD/svg11.dtd" >
<!--
2013-9-30: Created.
-->
<svg>
<metadata>
Created by iconfont
</metadata>
<defs>

<font id="iconfont" horiz-adv-x="1024" >
  <font-face
    font-family="iconfont"
    font-weight="500"
    font-stretch="normal"
    units-per-em="1024"
    ascent="896"
    descent="-128"
  />
    <missing-glyph />
    
    <glyph glyph-name="shenqing" unicode="&#59024;" d="M996.61394717 133.33775360000004l-940.86683194 0L55.74711523 741.0171062100001l940.86683194 0L996.61394717 133.33775360000004zM972.37448931 716.28398592L79.98657422 716.28398592 79.98657422 162.68963270999996l892.38675001 0L972.37332423 716.28398592zM171.98334749 89.92468423000003l721.24469134 0 0-41.33014528-721.24469134 0 0 41.33014528ZM573.48001792 551.19393337l313.92654677 0 0-44.01151772-313.92654677 0 0 44.01151772ZM573.48001792 460.72238649l313.92654677 0 0-52.50039239-313.92654677 0 0 52.50039239ZM573.48001792 361.91798044999996l313.92654677 0 0-45.08965434-313.92654677 0 0 45.08965434ZM436.5472768 366.86274104999995c-20.03751822 8.95808626-49.77244957 32.03208533-93.79793806 39.95977045 11.25873323 12.11914695 19.78137259 31.07270656 28.54618567 53.52380757 5.07981938 13.01216142 4.21009067 24.10440021 4.21009066 39.89922703 0 11.66390727 2.18305309 30.38577209-0.69624832 40.67581155-9.71138503 34.77283613-34.24657522 44.36546333-62.99651185 44.36546333-28.77089451 0-53.33752035-9.63686969-63.03027655-44.47024925-2.8548517-10.25860381-0.66481266-28.93738894-0.66481266-40.57451861 0-15.8285915-0.85459285-26.95692288 4.23803449-39.99004217 8.83350642-22.56753095 17.23040199-41.49198279 28.44838571-53.56106524-43.67387193-8.07205774-73.18409443-30.97490546-93.09470379-39.90272-41.19974457-18.47386909-41.40349667-38.70466048-41.40349668-38.70466048l0-34.35951104 331.79148971 0.03842162 0 34.32225336C478.09747399 328.08473031000005 477.90420195 348.38188601 436.5472768 366.86274104999995L436.5472768 366.86274104999995z"  horiz-adv-x="1024" />

    
    <glyph glyph-name="iconset0252" unicode="&#59031;" d="M128 213.333333l725.333333 0L853.333333 554.666667 128 554.666667 128 213.333333zM938.666667 469.333333l0 85.333333c0 46.933333-38.4 85.333333-85.333333 85.333333L128 640c-46.933333 0-85.333333-38.4-85.333333-85.333333l0-341.333333c0-46.933333 38.4-85.333333 85.333333-85.333333l725.333333 0c46.933333 0 85.333333 38.4 85.333333 85.333333l0 85.333333c23.466667 0 42.666667 19.2 42.666667 42.666667l0 85.333333C981.333333 450.133333 962.133333 469.333333 938.666667 469.333333zM896 426.666667l0-85.333333 0-128c0-23.466667-19.2-42.666667-42.666667-42.666667L128 170.666667c-23.466667 0-42.666667 19.2-42.666667 42.666667L85.333333 554.666667c0 23.466667 19.2 42.666667 42.666667 42.666667l725.333333 0c23.466667 0 42.666667-19.2 42.666667-42.666667L896 426.666667z"  horiz-adv-x="1024" />

    
    <glyph glyph-name="icon" unicode="&#58880;" d="M511.664867 832.024943c-246.690472 0-446.673156-199.982684-446.673156-446.673156 0-246.690472 199.982684-446.673156 446.673156-446.673156s446.673156 199.982684 446.673156 446.673156C958.338023 632.042259 758.355339 832.024943 511.664867 832.024943zM511.663844 5.193535c-210.519668 0-381.180536 170.660868-381.180536 381.181559 0 210.519668 170.660868 381.181559 381.180536 381.181559 210.521714 0 381.182582-170.660868 381.182582-381.181559C892.846426 175.855426 722.184535 5.193535 511.663844 5.193535zM318.940494 494.815875c1.188058 42.902112 3.421936 75.526137 12.371772 97.870028s21.375843 42.303478 41.069371 59.887972c19.694551 17.567098 41.620933 30.526247 65.787332 38.883589 24.165376 8.334829 49.674353 12.508895 76.525907 12.508895 54.29151 0 98.54234-18.782785 134.651746-50.652634 33.573653-29.655414 47.52541-73.736375 47.52541-124.530225 0-23.840988-3.685949-45.446052-12.929474-64.804958-9.257851-19.37221-22.322401-43.502793-52.448536-72.396867-30.132274-28.90533-50.119491-49.464575-59.965743-61.670571-9.843182-12.221346-17.314341-26.815739-22.372543-43.802622-5.079692-16.980743-6.715959-16.808828-6.715959-25.736151l-78.763878 0c0 11.31879 2.684132 17.388019 8.05649 37.360909 5.366218 19.958564 13.422707 37.386492 24.166399 52.284807 10.743692 14.894222 30.124088 36.792974 58.177004 65.695235 28.039613 28.894074 46.094828 49.901527 54.146201 63.014172 8.055466 13.100366 12.084223 32.621978 12.084223 58.543348 0 25.922393-9.253758 48.851615-27.745924 68.825528-18.502399 19.954471-45.348837 29.937846-80.551594 29.937846-79.364559 0-119.039163-47.074132-119.039163-141.215232L318.940494 494.815875 318.940494 494.815875 318.940494 494.815875 318.940494 494.815875zM543.970644 88.133525l-82.086553 0 0 91.172489 82.086553 0L543.970644 88.133525 543.970644 88.133525 543.970644 88.133525z"  horiz-adv-x="1024" />

    
    <glyph glyph-name="qianfei" unicode="&#59004;" d="M631.013069 538.74027 578.038554 416.221866l57.764612 0 0-57.775868L549.140387 358.445998l-11.106965-20.004613 0-17.769712 97.769744 0 0-55.556317-97.769744 0 0-77.774341-86.657662 0 0 77.774341-99.998505 0 0 55.556317 99.998505 0 0 17.769712-11.112082 20.004613L353.607038 358.445998l-2.229784 57.775868 71.111594 0-71.111594 164.432003 91.105974 0 57.779961-171.104983 60.005652 171.104983 54.459333 0c-17.811668 51.919487-28.758997 107.408265-31.706119 165.199483-26.622334 6.063089-54.29458 9.373485-82.768075 9.373485-205.01735 0-371.21865-166.206416-371.21865-371.22786 0-205.027583 166.2013-371.223766 371.21865-371.223766 168.607092 0 310.855864 112.429629 356.11772 266.386046C757.8355 337.360773 678.534386 428.478004 631.013069 538.74027zM659.848815 740.652909c-7.52744 2.990101-14.32424 5.452175-20.228717 7.439436l-22.026666-26.910906c0.822738-8.049327 1.981121-17.35118 3.615341-27.719318L659.848815 740.652909zM894.662795 417.463136l-67.687612-82.684164c5.215792-4.226255 10.559497-8.4126 16.021905-12.56006l51.701522 63.150272C895.068024 396.366655 895.045511 407.070438 894.662795 417.463136zM876.200304 523.334395 767.203868 390.210445c4.634554-4.925173 9.394974-9.819646 14.298658-14.682397l101.613282 124.121925C881.056915 507.783211 878.729917 515.672902 876.200304 523.334395zM836.345598 603.10009 714.276425 453.981864c4.01443-5.628184 8.179286-11.246135 12.503778-16.870226l120.738875 147.485029C843.94467 590.974935 840.219835 597.136262 836.345598 603.10009zM782.932084 666.271852 671.265842 529.878438c3.202948-6.53381 6.587022-13.109576 10.155291-19.735483l116.29568 142.048203C792.847921 657.089725 787.918655 661.786701 782.932084 666.271852zM734.493885 703.410704c-5.881964 3.833305-11.710716 7.429203-17.46886 10.791787l-80.025615-97.759511c2.290159-7.459902 4.810562-15.099906 7.553023-22.906709L734.493885 703.410704z"  horiz-adv-x="1024" />

    
    <glyph glyph-name="new" unicode="&#59018;" d="M887.872 630.4L136.128 630.4C96.288 630.4 64 598.1120000000001 64 558.2719999999999l0-349.44c0-39.84 32.288-72.128 72.128-72.128l751.744 0c39.84 0 72.128 32.288 72.128 72.128l0 349.44C960 598.1120000000001 927.712 630.4 887.872 630.4L887.872 630.4zM323.04 269.98400000000004L271.584 269.98400000000004l-97.632 189.504 0-188.48L143.168 271.00800000000004l0 224.096 45.568 0 100.448-194.336 3.04 0 0 195.36 30.784 0L323.008 269.98400000000004 323.04 269.98400000000004zM527.072 399.328l0-30.784-125.344-0.064c0.032-2.304 0.064-4.416 0.064-6.368l0-0.16c0.128-39.52 12.672-59.552 37.28-59.552l88 0 0-30.784-88 0c-19.392 0-35.904 7.296-47.776 21.12-13.344 15.552-20.16 38.784-20.288 69.056-0.16 11.584-0.256 29.12-0.256 53.6 0 50.944 35.392 75.072 68.512 80.672l1.44 0.224c13.728 1.376 79.168 0.448 86.592 0.352l-0.448-30.784c-27.936 0.416-72.48 0.704-82.56-0.16-12.96-2.208-42.752-11.552-42.752-50.304 0-5.76 0-11.104 0-16.096L527.072 399.328 527.072 399.328zM815.872 269.98400000000004l-45.76 0-45.696 180.224-50.88-180.224-47.104 0L560.768 496l33.568 0 58.048-184.992 1.92 1.024 51.2 184.608 38.848 0 49.312-194.368 60.192 193.792 32.416 0L815.872 269.98400000000004 815.872 269.98400000000004zM815.872 269.98400000000004"  horiz-adv-x="1024" />

    
    <glyph glyph-name="jiaoshi" unicode="&#59020;" d="M200.421046 441.263165c-67.36842 0-121.263156-53.894736-121.263156-121.263156l0-326.736837c0-67.36842 53.894736-121.263156 121.263156-121.263156l281.263153 0L294.736834 441.263165 200.421046 441.263165 200.421046 441.263165zM823.57893 441.263165l-94.315788 0-185.263155-569.263149 279.578943 0c67.36842 0 121.263156 53.894736 121.263156 121.263156L944.842086 320.000009C944.842086 387.368429 890.94735 441.263165 823.57893 441.263165L823.57893 441.263165zM853.894719 60.631593l-153.263155 0c-10.105263 0-16.842105 8.421052-16.842105 16.842105 0 10.105263 8.421052 16.842105 16.842105 16.842105L853.894719 94.315803c10.105263 0 16.842105-8.421052 16.842105-16.842105C870.736824 69.052645 862.315772 60.631593 853.894719 60.631593L853.894719 60.631593zM735.999984 672.000004C735.999984 796.631581 634.947354 896 511.999988 896c-122.947366 0-223.999996-99.368419-223.999996-223.999996 0-122.947366 101.05263-223.999996 223.999996-223.999996C634.947354 448.000007 735.999984 549.052637 735.999984 672.000004L735.999984 672.000004zM511.999988 412.631587l-109.473682-92.631577 109.473682-335.157889 109.473682 335.157889L511.999988 412.631587zM511.999988 412.631587"  horiz-adv-x="1024" />

    
    <glyph glyph-name="shenhe-copy" unicode="&#58974;" d="M166.72115675 193.59971555000004c-40.861696 62.10021452-62.47279882 137.11830282-62.47279883 216.85498312 0 224.68046697 182.69980445 407.38027141 407.38027141 407.38027141 68.9317357 0 136.99329897-17.51267555 196.98301156-50.67389156 13.16545422-7.3278957 29.80795733-2.48429985 37.13585303 10.68115437 7.3278957 13.16545422 2.48429985 29.80795733-10.68115437 37.13585303-68.06277689 37.63344118-145.31515733 57.50541275-223.43771022 57.50541275-62.34900859 0-122.8350957-12.17149155-179.8429203-36.26689422-55.02111289-23.35023408-104.45346133-56.6352403-146.80549451-99.11227734s-75.76325689-91.78438163-98.98848711-146.80549452c-24.21919289-57.00782459-36.39068445-117.4939117-36.39068444-179.84292029 0-90.41783467 24.71556741-175.86828325 71.41603555-246.91173452 5.21618015-7.94927408 13.91062282-12.29649541 22.85264593-12.29649541 5.09238992 0 10.30857008 1.49033718 15.0283757 4.47101155 12.54407585 8.32185837 16.14612859 25.21315555 7.82427022 37.88102163zM971.79208059 452.55915141c-1.36654697 15.0283757-14.65579141 26.08211437-29.68416711 24.71556741-15.0283757-1.36654697-26.08211437-14.65579141-24.7155674-29.68416712 1.11775289-12.29649541 1.61412741-24.84057125 1.6141274-37.26085688 0-224.68046697-182.69980445-407.38027141-407.3802714-407.38027141-50.42509748 0-114.51323733 13.66182875-167.42263467 35.64551584-13.91062282 5.83755852-29.93296118-0.74516859-35.77051971-14.77958162-5.83755852-13.91062282 0.74516859-29.93296118 14.77958163-35.77051971 59.98971259-24.71556741 130.41178548-39.62015289 188.41357275-39.62015289 62.34900859 0 122.8350957 12.17149155 179.84292029 36.26689422 55.02111289 23.35023408 104.45346133 56.6352403 146.80549452 99.11227734 42.47703703 42.47703703 75.76325689 91.78438163 98.98848711 146.80549452 24.21919289 57.00782459 36.39068445 117.4939117 36.39068445 179.8429203 0 14.03441303-0.62137837 28.19382992-1.86292148 42.10445274zM763.25895585 717.7275164499999c60.48608711-48.31459555 115.38340978-133.51625008 135.50296178-198.84593304 3.60205275-11.79890725 14.40699733-19.37559703 26.08211437-19.37559704 2.60809008 0 5.341184 0.3725843 8.0730643 1.24154311 14.40699733 4.47101155 22.48006163 19.74818133 18.13284029 34.15517867-27.32365748 89.05250133-80.48184889 167.05005037-153.6370157 225.54942577-11.79890725 9.43961125-28.93899852 7.45168592-38.37860978-4.34722133-9.56340148-11.79890725-7.57668978-28.93899852 4.22343111-38.37860977zM280.6130157 77.34734696999999c-26.08211437 17.63646578-50.17751703 38.25360592-71.53982578 61.35504592-10.30857008 11.05373867-27.57245155 11.67511703-38.62619022 1.49033719-11.05373867-10.30857008-11.67511703-27.57245155-1.49033718-38.62619023 24.21919289-26.20590459 51.544064-49.55613867 81.10322726-69.55311407 4.71980563-3.10446459 9.93598578-4.71980563 15.27716977-4.71980563 8.81823289 0 17.3876717 4.22343111 22.7288557 12.04770133 8.32185837 12.54407585 5.09238992 29.56037689-7.45168592 38.00602549zM463.18902992 316.06101333000004v142.83085749h-95.63522844v31.05071407h-22.3562714v-31.05071407h-95.63522845v-142.83085749h21.11472829v13.66182875h74.52050016v-63.34297126h22.3562714v63.34297126h74.52050015v-13.66182875h21.11472829zM345.19753008 349.59602725h-74.52050016v34.77655705h74.52050016v-34.77655705zM345.19753008 404.24455585h-74.52050016v33.5338003h74.52050016v-33.5338003zM367.55380148 437.77835615h74.52050015v-33.5338003h-74.52050015v33.5338003zM367.55380148 349.59602725v34.77655705h74.52050015v-34.77655705h-74.52050015zM489.2711443 465.10322725v54.6485286h-128.17506608l13.66182875 8.19685452c-5.96134875 9.06702697-13.041664 18.63042845-20.98972445 28.69020445l-20.12076563-11.79890727c6.33393303-8.81823289 11.92391111-17.63646578 16.89129719-25.0881517h-127.05731319v-54.6485286h22.35627141v33.5338003h221.07841422v-33.5338003h22.3562714zM574.97038697 265.13954133000004v149.0410003c9.93598578-8.94202311 19.49938725-18.50542459 28.93899851-28.8152083l14.90458549 14.90458549c-10.68115437 10.4323603-22.35627141 20.98972445-34.77655705 31.42329836l-9.19081717-9.56340148v51.66785422h33.53380028v19.87197156h-33.53380028v58.37437155h-21.1147283v-58.37437155h-42.22824297v-19.87197156h41.48307437c-8.32185837-37.26085689-22.85264592-72.65757867-43.71858015-105.69500444 3.72584297-8.69444267 6.95531141-17.3876717 9.56340148-25.70953007 13.16545422 19.25059318 24.96436148 44.58875259 34.90034727 76.38342162v-153.6370157h21.23851852zM723.14242845 326.61837748000005c22.48006163-20.3695597 42.84962133-39.62015289 61.10746547-57.62920296l17.760256 18.87800889c-19.62317748 17.51267555-40.61411555 35.27293155-62.8453831 53.5307757 19.74818133 19.25059318 38.00602548 40.861696 54.77231881 64.95709867l-19.74818133 13.4142483c-42.84962133-63.21796741-97.49814992-108.92447289-163.94558578-136.86950875 6.58272711-7.57668978 11.79890725-14.03441303 15.40096-19.25059318 35.64551585 16.14612859 68.18656711 37.13585303 97.49814993 62.97038696zM767.72996741 464.85443318l-21.23851852 11.30253274c-8.32185837-15.52475022-18.00905008-30.18054163-29.06278874-43.96737422-21.98368711-1.36654697-43.59478992-2.85688415-64.95709867-4.09842725 15.15216592 19.00301275 29.80795733 39.37135882 43.96737422 60.4860871h103.33570845v21.1147283h-89.42508563l15.40096 10.4323603c-9.6871917 13.16545422-18.25784415 24.46798697-25.58573985 33.5338003l-18.87800889-12.04770134c6.83152118-9.31460741 14.15941689-19.49938725 22.10747733-31.91967289h-89.92146014v-21.1147283h55.8900717c-11.67511703-18.63042845-23.59781452-36.01810015-35.7705197-50.92268562-4.47101155-5.83755852-10.68115437-10.68115437-18.63042845-15.02837571l10.80494459-21.11472829c6.21014282 1.9867117 12.91666015 3.35325867 20.12076564 4.09842725 16.26991882 1.73913125 33.90638459 3.60205275 53.03440117 5.58876445-26.20590459-27.32365748-58.62316563-51.04647585-97.24935584-71.04345125 5.58876445-5.83755852 11.17752889-11.67511703 16.6425031-17.760256 66.32364563 36.76326875 116.25236859 84.20890548 149.4135846 142.45827317z"  horiz-adv-x="1024" />

    
    <glyph glyph-name="jianpan" unicode="&#58888;" d="M513.488911 828.572308c-245.531066 0-444.574355-199.044312-444.574355-444.575378s199.043289-444.569238 444.574355-444.569238 444.570261 199.038172 444.570261 444.569238S759.019976 828.572308 513.488911 828.572308zM513.488911-6.830313c-215.85314 0-390.83236 174.975127-390.83236 390.828266 0 215.854163 174.97922 390.833383 390.83236 390.833383 215.854163 0 390.82929-174.97922 390.82929-390.833383C904.3182 168.144814 729.343073-6.830313 513.488911-6.830313zM425.145863 472.341001l35.335786 0c9.754155 0 17.671475 7.916297 17.671475 17.670451l0 70.673619c0 9.750061-7.91732 17.665335-17.671475 17.665335l-35.335786 0c-9.754155 0-17.671475-7.916297-17.671475-17.665335l0-70.673619C407.475412 480.257298 415.391708 472.341001 425.145863 472.341001zM425.145863 313.324334l35.335786 0c9.754155 0 17.671475 7.916297 17.671475 17.670451L478.153124 401.668405c0 9.754155-7.91732 17.665335-17.671475 17.665335l-35.335786 0c-9.754155 0-17.671475-7.91118-17.671475-17.665335l0-70.673619C407.475412 321.240631 415.391708 313.324334 425.145863 313.324334zM566.491055 472.341001l35.33681 0c9.754155 0 17.670451 7.916297 17.670451 17.670451l0 70.673619c0 9.750061-7.916297 17.665335-17.670451 17.665335l-35.33681 0c-9.750061 0-17.665335-7.916297-17.665335-17.665335l0-70.673619C548.82572 480.257298 556.742017 472.341001 566.491055 472.341001zM566.491055 313.324334l35.33681 0c9.754155 0 17.670451 7.916297 17.670451 17.670451L619.498316 401.668405c0 9.754155-7.916297 17.665335-17.670451 17.665335l-35.33681 0c-9.750061 0-17.665335-7.91118-17.665335-17.665335l0-70.673619C548.82572 321.240631 556.742017 313.324334 566.491055 313.324334zM283.799648 472.341001l35.335786 0c9.751085 0 17.666358 7.916297 17.666358 17.670451l0 70.673619c0 9.750061-7.916297 17.665335-17.666358 17.665335l-35.335786 0c-9.754155 0-17.671475-7.916297-17.671475-17.665335l0-70.673619C266.129196 480.257298 274.045493 472.341001 283.799648 472.341001zM743.179197 578.350406l-35.33681 0c-9.754155 0-17.670451-7.916297-17.670451-17.665335l0-70.673619c0-9.754155 7.916297-17.670451 17.670451-17.670451l35.33681 0c9.754155 0 17.665335 7.916297 17.665335 17.670451l0 70.673619C760.844531 570.435133 752.933351 578.350406 743.179197 578.350406zM336.802816 330.994786 336.802816 401.668405c0 9.754155-7.916297 17.665335-17.666358 17.665335l-35.335786 0c-9.754155 0-17.671475-7.91118-17.671475-17.665335l0-70.673619c0-9.754155 7.91732-17.670451 17.671475-17.670451l35.335786 0C328.886519 313.324334 336.802816 321.240631 336.802816 330.994786zM743.179197 419.33374l-35.33681 0c-9.754155 0-17.670451-7.91118-17.670451-17.665335l0-70.673619c0-9.754155 7.916297-17.670451 17.670451-17.670451l35.33681 0c9.754155 0 17.665335 7.916297 17.665335 17.670451L760.844531 401.668405C760.844531 411.42256 752.933351 419.33374 743.179197 419.33374zM707.842387 242.650715 319.135434 242.650715c-9.754155 0-17.670451-7.916297-17.670451-17.670451l0-17.665335c0-9.754155 7.916297-17.671475 17.670451-17.671475l388.706953 0c9.750061 0 17.666358 7.91732 17.666358 17.671475l0 17.665335C725.508745 234.735441 717.592448 242.650715 707.842387 242.650715z"  horiz-adv-x="1024" />

    
    <glyph glyph-name="buoumaotubiao45" unicode="&#59017;" d="M526.930629-83.532693c-221.872849 0-402.361891 180.512226-402.361891 402.361891 0 221.849665 180.489042 402.361891 402.361891 402.361891s402.361891-180.512226 402.361891-402.361891C929.292519 96.979533 748.803478-83.532693 526.930629-83.532693zM526.930629 674.845861c-196.30067 0-355.993479-159.692809-355.993479-355.993479s159.715993-355.993479 355.993479-355.993479 355.993479 159.715993 355.993479 355.993479S723.208114 674.845861 526.930629 674.845861zM404.28618 390.56113m-37.882992 0a1.634 1.634 0 1 0 75.765984 0 1.634 1.634 0 1 0-75.765984 0ZM404.355733 341.016483c-27.310994 0-49.544648 22.210469-49.544648 49.544648 0 27.310994 22.233653 49.521464 49.544648 49.521464 27.241442 0 49.405542-22.210469 49.405542-49.521464C453.761275 363.250136 431.597174 341.016483 404.355733 341.016483zM404.355733 416.898388c-14.536497 0-26.360442-11.800761-26.360442-26.337258 0-14.536497 11.823945-26.360442 26.360442-26.360442 14.466944 0 26.221337 11.823945 26.221337 26.360442C430.577069 405.097627 418.822677 416.898388 404.355733 416.898388zM687.411701 390.56113c0-20.935338-16.92447-37.952545-37.882992-37.952545-20.842601 0-37.882992 16.994023-37.882992 37.952545 0 20.935338 17.017207 37.929361 37.882992 37.929361C670.487231 428.490491 687.411701 411.496468 687.411701 390.56113zM649.551893 341.016483c-27.28781 0-49.475095 22.210469-49.475095 49.544648 0 27.310994 22.187285 49.521464 49.475095 49.521464s49.475095-22.210469 49.475095-49.521464C699.003804 363.250136 676.816519 341.016483 649.551893 341.016483zM649.551893 416.898388c-14.490129 0-26.290889-11.800761-26.290889-26.337258 0-14.536497 11.800761-26.360442 26.290889-26.360442s26.290889 11.823945 26.290889 26.360442C675.819598 405.097627 664.042021 416.898388 649.551893 416.898388zM475.693534 175.249411c-7.766709 0-16.113023 1.553342-24.923021 4.68321-5.239631 1.831552-7.952183 7.511683-6.097446 12.704945 1.738815 5.216446 7.418946 7.952183 12.728129 6.074262 15.000181-5.262815 26.731389-4.52092 35.865966 1.924289 20.147075 14.44376 24.204311 55.363883 24.042021 69.90038-0.069553 5.541025 4.358631 10.038761 9.92284 10.08513 4.938236-0.672342 10.038761-4.335446 10.08513-9.853287 0-2.527078 0.347763-62.829198-32.318783-86.222061C496.39703 178.309726 486.59011 175.249411 475.693534 175.249411zM475.693534 163.657308c-9.088209 0-18.779207 1.808368-28.794784 5.332367-5.40192 1.877921-9.806919 5.796051-12.287629 11.012498s-2.782105 11.08205-0.834631 16.530339c3.570368 10.780656 16.344865 17.063575 27.496468 13.12226 11.08205-3.894947 19.242891-3.871762 25.317153 0.463684 13.400471 9.598261 19.358812 41.662018 19.150154 60.325303-0.069553 5.749683 2.109763 11.197971 6.143815 15.32476 4.057236 4.126789 9.48234 6.422025 15.278392 6.468393 13.214997-1.669263 21.677232-10.618366 21.746785-21.352654 0-11.661655-1.715631-70.364064-37.164282-95.727586C501.242529 167.529071 489.117189 163.657308 475.693534 163.657308zM572.788988 175.318964c-8.32313 0-16.089839 1.738815-23.045101 5.355552-14.745155 7.581235-25.456258 22.48868-32.086941 44.397754-1.530158 5.332367 1.506973 10.850208 6.792972 12.449918 5.309183 1.530158 10.827024-1.414237 12.40355-6.700235 4.938236-16.553523 12.287629-27.473284 21.955443-32.365151 8.415867-4.358631 19.289259-4.196341 32.272414 0.301395 5.239631 1.877921 10.942945-0.927368 12.704945-6.074262 1.854736-5.285999-0.881-10.919761-6.143815-12.774497C588.878826 176.849122 580.602065 175.318964 572.788988 175.318964zM572.788988 163.726861c-10.36334 0-19.915233 2.248868-28.423836 6.700235-17.480891 8.972288-30.232204 26.244521-37.81344 51.306647-3.338526 11.499366 3.222605 23.508785 14.559681 26.916863 12.009419 3.408078 23.508785-3.338526 26.824126-14.466944 3.964499-13.261366 9.528709-22.024995 16.113023-25.386705 5.587394-2.874842 13.400471-2.48071 23.20739 0.927368 10.525629 3.779026 23.671074-2.272052 27.473284-13.261366 3.918131-11.105235-1.993842-23.4856-13.191813-27.473284C591.54501 165.488861 581.90038 163.726861 572.788988 163.726861zM564.465858 260.381815c0-18.199602-14.675602-32.875204-32.875204-32.875204l-10.340156 0c-18.153233 0-32.875204 14.675602-32.875204 32.875204l0 0c0 18.130049 14.721971 32.828835 32.875204 32.828835l10.340156 0C549.790255 293.21065 564.465858 278.535048 564.465858 260.381815L564.465858 260.381815zM531.590654 215.914508l-10.340156 0c-24.52889 0-44.467307 19.961601-44.467307 44.467307 0 24.505705 19.938417 44.420938 44.467307 44.420938l10.340156 0c24.52889 0 44.467307-19.915233 44.467307-44.420938C576.057961 235.876109 556.096359 215.914508 531.590654 215.914508zM521.227314 281.618547c-11.731208 0-21.283101-9.528709-21.283101-21.236732 0-11.731208 9.551893-21.283101 21.283101-21.283101l10.340156 0c11.731208 0 21.283101 9.551893 21.283101 21.283101 0 11.708024-9.551893 21.236732-21.283101 21.236732L521.227314 281.618547zM357.500453-15.440681c-21.723601-25.108495-48.686832-45.881543-78.107589-50.958884-25.943126-4.474552-58.911067 0.347763-84.460062 13.748234 4.938236 6.12063 9.296867 12.612208 12.774497 19.729759 11.777577 24.134758 10.224235 54.830647-15.533418 68.416591-28.215178 14.861076-49.591016-13.446839-51.839884-38.97265-1.970657-22.349574 6.839341-39.389966 21.120811-52.164463-29.722152-23.276943-72.775222-34.984966-108.849846-35.425466-13.701866-0.162289-13.701866-21.399022 0-21.236732 41.754755 0.510053 92.922297 14.629234 127.072632 43.957254 23.276943-12.774497 52.581779-18.732838 75.812353-20.100706 47.759464-2.805289 90.928455 26.314074 122.343054 63.942039C370.71545-21.468575 363.876109-18.454628 357.500453-15.440681zM180.234016 17.434523c27.913784-5.378736 9.018656-41.986597-3.19942-57.93733-2.295236 1.970657-4.706394 3.871762-6.700235 6.051078C159.576888-22.697337 154.777758 22.372759 180.234016 17.434523zM52.442673-123.873211c-12.287629 0-21.630864 9.435972-21.723601 21.932259-0.069553 12.658576 9.273682 22.32639 21.746785 22.465495 32.620178 0.394131 66.42275 10.038761 91.368955 25.641732-11.568919 14.675602-16.762181 32.179678-15.04655 51.353016 2.341605 26.383626 20.935338 53.648252 48.01449 53.648252 6.932078 0 13.933708-1.831552 20.773048-5.448288 32.063757-16.901286 34.590835-54.946568 20.541206-83.764535-1.622894-3.338526-3.431262-6.630683-5.494657-9.876472 20.262996-7.673972 45.070096-10.502445 64.799855-7.094367 29.722152 5.123709 55.17841 28.44702 71.314617 47.110306l5.749683 6.653867 7.952183-3.755841c6.259736-2.944394 12.959971-5.888788 19.892049-8.833182l14.420576-6.074262-10.038761-12.032603c-36.793335-44.049991-81.14472-68.30067-124.893316-68.30067l0 0c-2.341605 0-4.68321 0.069553-7.047999 0.208658-12.936787 0.765079-44.560043 4.010868-73.679406 17.898207-38.833545-30.023546-91.137113-41.337439-128.394131-41.801123L52.442673-123.942764zM176.547727 6.213367c-0.71871 0-1.066473 0-1.808368-1.715631-2.782105-6.306104-1.437421-18.014128 1.182394-25.433074 5.494657 10.154682 8.462235 20.031154 6.792972 24.436153-0.185474 0.486868-0.672342 1.808368-4.660025 2.573447L176.547727 6.213367zM773.633762 579.164644 719.220431 746.230031 692.118095 662.882811 647.998551 677.233834 719.220431 896 817.753306 593.538852ZM278.164101 579.164644 234.067741 593.538852 332.554247 896 403.776128 677.233834 359.679768 662.882811 332.554247 746.230031Z"  horiz-adv-x="1024" />

    
    <glyph glyph-name="chuangjian" unicode="&#59530;" d="M992.013858 95.991689 800.008313 95.991689 800.008313-96.012425C800.008313-113.690334 785.694356-128.041481 768.016448-128.041481 750.347121-128.041481 735.985966-113.690334 735.985966-96.012425L735.985966 95.991689 543.983284 95.991689C526.313957 95.991689 511.99857 110.307072 511.99857 127.976397 511.99857 145.654306 526.313957 159.969698 543.983284 159.969698L735.987396 159.969698 735.987396 351.973809C735.987396 369.650287 750.347121 384.00286 768.017878 384.00286 785.694356 384.00286 800.009743 369.650287 800.009743 351.973809L800.009743 159.968265 992.015283 159.968265C1009.684617 159.968265 1024 145.652881 1024 127.974972 1023.998566 110.307072 1009.683183 95.991689 992.013858 95.991689L992.013858 95.991689ZM831.993027 612.572782C831.993027 742.350943 752.711327 831.979082 612.578145 831.979082L283.428648 831.979082C143.259711 831.979082 63.97801 747.538464 63.97801 612.572782L63.97801 283.414703C63.97801 153.59936 150.160674 63.962633 283.428648 63.962633L399.982703 63.962633 399.982703-0.005367 255.980692-0.005367C114.603191-0.005367 0 114.577809 0 255.966746L0 639.973541C0 781.363913 114.603191 896 255.980692 896L639.988915 896C781.369276 896 896.005367 781.363913 896.005367 639.973541L896.005367 495.97439 831.991597 495.97439 831.991597 612.572782 831.993027 612.572782 831.993027 612.572782Z"  horiz-adv-x="1024" />

    
    <glyph glyph-name="zuoye" unicode="&#58999;" d="M893.155556 270.222222V762.311111c0 73.955556-59.733333 133.688889-128 133.688889H270.222222C190.577778 896 130.844444 836.266667 130.844444 762.311111V270.222222c0-65.422222 36.977778-147.911111 85.333334-190.577778l196.266666-170.666666c25.6-22.755556 62.577778-36.977778 99.555556-36.977778 36.977778 0 68.266667 11.377778 93.866667 34.133333l196.266666 176.355556c34.133333 28.444444 65.422222 79.644444 79.644445 130.844444 2.844444 2.844444 2.844444 8.533333 2.844444 11.377778 5.688889 14.222222 8.533333 31.288889 8.533334 45.511111zM822.044444 762.311111v-480.711111l-119.466666 65.422222V824.888889h56.888889c34.133333 0 62.577778-28.444444 62.577777-62.577778z m-426.666666 62.577778h236.088889v-466.488889L512 267.377778l-116.622222 71.111111V824.888889z m-128 0h59.733333v-483.555556l-122.311111-65.422222V762.311111c-2.844444 34.133333 25.6 62.577778 62.577778 62.577778z m492.088889-691.2l-164.977778-136.533333c-22.755556 17.066667-51.2 28.444444-85.333333 28.444444s-65.422222-14.222222-91.022223-34.133333l-156.444444 139.377777c-17.066667 17.066667-36.977778 45.511111-48.355556 73.955556l139.377778 73.955556 136.533333-85.333334c11.377778-8.533333 28.444444-8.533333 39.822223 0l122.311111 93.866667c2.844444 0 5.688889 0 5.688889-2.844445l145.066666-79.644444c-5.688889-25.6-22.755556-54.044444-42.666666-71.111111z"  horiz-adv-x="1024" />

    
    <glyph glyph-name="ziyuan" unicode="&#59027;" d="M217.795-3.249h-141.385c18.058 118.234 95.423 214.985 200.253 260.050l48.21 24.279-56.658 33.787c-65.345 40.534-108.212 111.877-108.212 193.232 0 110.123 78.544 201.901 182.667 222.37 31.446 56.571 73.611 102.84 124.667 136.803l-82.687-61.717c-164.044-0.285-297.124-132.453-298.881-296.121-0.002-0.41-0.003-0.703-0.003-0.995 0-87.645 38.257-166.354 98.983-220.339-108.443-73.29-180.277-194.012-185.097-331.775l0.35-30.784h201.681c8.662 53.024 23.232 100.558 43.3 145.080zM998.009 734.342c115.108-11.517 204.239-107.875 204.239-225.051 0-82.282-43.951-154.299-109.656-193.855l-57.677-34.356 58.737-29.109c104.807-49.929 178.817-149.541 191.884-267.529l-157.578 12.309c12.67-42.856 20.629-92.29 22.034-143.36l213.433 71.628-3.119 38.465c-7.704 138.107-81.702 257.418-190.445 327.421 66.423 50.66 104.68 129.369 104.68 217.013 0 0.293-0 0.585-0.001 0.877-0.295 164.904-133.934 298.543-298.855 298.837l-26.018 0c38.171-44.896 65.99-99.776 79.056-160.151zM912.762 280.040h-4.158zM672.616 824.267c0.551 0.004 1.202 0.007 1.854 0.007 143.538 0 259.898-116.36 259.898-259.898 0-94.966-50.934-178.035-126.974-223.381l-113.467-68.751 116.954-57.178c116.923-56.061 201.068-164.267 222.816-293.646l-718.182 22.313c30.278 129.181 120.332 232.408 238.69 280.368l97.099 48.143-112.276 67.054c-77.231 46.003-128.165 129.073-128.165 224.039 0 143.538 116.36 259.898 259.898 259.898 0.652 0 1.303-0.002 1.954-0.007M672.616 894.439c-182.698-0.602-330.571-148.846-330.571-331.628 0-119.76 63.481-224.693 158.63-282.985-155.016-77.093-262.286-232.4-268.56-413.372l880.249 5.547c-8.783 181.429-117.851 335.43-272.627 408.481 100.919 57.326 165.538 163.062 165.538 283.889 0 183.154-148.476 331.63-331.63 331.63-0.361 0-0.723-0.001-1.084-0.002z"  horiz-adv-x="1363" />

    
    <glyph glyph-name="tubiaozhizuomoban" unicode="&#59085;" d="M893.349 862.487H131.322C61.178 862.487 4.315 805.624 4.315 735.48v-698.525c0-70.143 56.869-126.999 127.007-126.999h762.027c70.145 0 127.001 56.856 127.001 126.999V735.479c0 70.145-56.856 127.008-127.001 127.008zM495.557 696.982c0 9.253 7.507 16.761 16.761 16.761 9.253 0 16.762-7.508 16.762-16.761v-48.543c0-9.254-7.509-16.762-16.762-16.762-9.254 0-16.761 7.508-16.761 16.762v48.543zM217.614 352.376h-48.559c-9.253 0-16.761 7.511-16.761 16.761 0 9.254 7.509 16.761 16.761 16.761h48.559c9.253 0 16.761-7.507 16.761-16.761-0.001-9.249-7.508-16.761-16.761-16.761z m62.134 199.35l-34.325 34.344c-6.557 6.553-6.557 17.164 0 23.702 6.553 6.553 17.145 6.553 23.698 0l34.329-34.348c6.557-6.553 6.557-17.161 0-23.698a16.716 16.716 0 0 0-11.851-4.915 16.727 16.727 0 0 0-11.851 4.915z m277.675-526.872h-90.211c-9.253 0-16.761 7.508-16.761 16.761 0 9.254 7.508 16.762 16.761 16.762h90.211c9.254 0 16.761-7.508 16.761-16.762 0-9.253-7.507-16.761-16.761-16.761z m54.225 151.156c-9.687-4.861-15.219-13.627-15.219-23.716v-24.189c0-9.254-7.508-16.761-16.762-16.761H444.953c-9.254 0-16.761 7.507-16.761 16.761v24.189c0 10.089-5.532 18.872-14.801 23.498-73.971 37.01-119.932 110.056-119.912 190.614 0 119.344 98.171 216.43 218.839 216.43 120.669 0 218.843-97.086 218.843-216.43 0-77.957-45.795-150.907-119.513-190.396z m167.55 410.06l-34.325-34.344a16.723 16.723 0 0 0-11.85-4.915 16.77 16.77 0 0 0-11.85 4.915c-6.557 6.537-6.557 17.145 0 23.698l34.328 34.348c6.553 6.553 17.145 6.553 23.698 0 6.554-6.538 6.554-17.149-0.001-23.702z m76.383-233.694h-48.558c-9.269 0-16.762 7.511-16.762 16.761 0 9.254 7.509 16.761 16.762 16.761h48.558c9.253 0 16.761-7.507 16.761-16.761 0-9.249-7.507-16.761-16.761-16.761zM512.303 549.309c-102.18 0-185.321-82.046-185.301-182.903 0-67.783 38.851-129.335 101.389-160.629 20.552-10.29 33.324-30.792 33.324-53.484v-7.428h101.19v7.428c0 22.712 12.756 43.194 33.323 53.484 62.37 33.423 101.39 95.056 101.39 160.629 0.001 100.856-83.135 182.903-185.315 182.903z m105.479-240.028c0-9.25-7.508-16.762-16.761-16.762-9.25 0-16.762 7.512-16.762 16.762V392.59l-59.672-64.03c-0.134-0.169-0.333-0.219-0.483-0.354-0.153-0.135-0.203-0.353-0.353-0.487-0.706-0.668-1.592-0.936-2.363-1.457-0.94-0.618-1.796-1.324-2.801-1.727-1.04-0.418-2.11-0.537-3.184-0.737-1.04-0.185-2.03-0.487-3.085-0.487-1.071 0-2.095 0.303-3.168 0.502-1.056 0.204-2.095 0.319-3.101 0.722-1.021 0.418-1.876 1.124-2.816 1.745-0.771 0.503-1.642 0.787-2.347 1.439-0.15 0.135-0.2 0.338-0.35 0.487-0.153 0.149-0.353 0.203-0.487 0.354l-59.672 64.03v-83.308c0-9.25-7.507-16.762-16.761-16.762s-16.762 7.512-16.777 16.762V435.148a16.79 16.79 0 0 0 10.627 15.603c6.384 2.516 13.712 0.874 18.403-4.174l76.435-82.012 76.448 82.012c4.711 5.048 12.035 6.69 18.404 4.174a16.762 16.762 0 0 0 10.627-15.603v-125.867z"  horiz-adv-x="1024" />

    
    <glyph glyph-name="tuikuan" unicode="&#59063;" d="M380.970667 309.489778a28.444444 28.444444 0 0 1 0-56.888889h110.990222v-101.504a28.444444 28.444444 0 0 1 56.888889 0v101.504h111.004444a28.444444 28.444444 0 0 1 0 56.888889h-111.004444v83.911111h111.004444a28.444444 28.444444 0 0 1 0 56.888889h-94.279111l106.993778 86.883555a28.444444 28.444444 0 0 1-35.854222 44.16l-113.592889-92.245333-119.509334 92.657778a28.444444 28.444444 0 0 1-34.872888-44.970667l111.587555-86.485333h-99.342222a28.444444 28.444444 0 0 1 0-56.888889h110.990222v-83.911111h-111.004444zM509.496889 881.422222c-164.494222 0-318.876444-79.900444-412.970667-213.731555a491.946667 491.946667 0 0 1-16.440889-25.130667l-6.584889 63.061333a28.544 28.544 0 0 1-31.246222 25.329778 28.444444 28.444444 0 0 1-25.329778-31.246222l16.071112-153.870222a28.416 28.416 0 0 1 28.302222-25.486223c4.252444 0 8.504889 0.938667 12.416 2.858667l134.812444 65.450667a28.444444 28.444444 0 1 1-24.832 51.171555l-54.912-26.652444c4.565333 7.395556 9.272889 14.691556 14.279111 21.788444 83.456 118.712889 220.444444 189.568 366.449778 189.568 245.888 0 445.923556-197.774222 445.923556-440.888889s-200.035556-440.888889-445.923556-440.888888c-195.754667 0-366.72 123.918222-425.429333 308.366222a28.529778 28.529778 0 0 1-35.740445 18.488889 28.458667 28.458667 0 0 1-18.488889-35.740445c66.261333-208.156444 259.029333-348.003556 479.658667-348.003555 277.248 0 502.812444 223.303111 502.812445 497.777777s-225.578667 497.777778-502.826667 497.777778z"  horiz-adv-x="1024" />

    
    <glyph glyph-name="tuozhuai" unicode="&#59356;" d="M369.10592 883.26144c-39.1424 0-71.15776-32.02048-71.15776-71.15776 0-39.13216 32.02048-71.14752 71.15776-71.14752 39.13216 0 71.14752 32.02048 71.14752 71.14752 0 39.13728-31.42144 71.15776-71.14752 71.15776z m285.7984-142.3104c39.13216 0 71.14752 32.02048 71.14752 71.14752 0 39.1424-32.02048 71.15776-71.14752 71.15776-39.1424 0-71.15264-32.02048-71.15264-71.15776 0-39.12704 31.42144-71.14752 71.15264-71.14752z m-285.7984-142.8992c-39.1424 0-71.15776-32.02048-71.15776-71.14752 0-39.1424 32.02048-71.15776 71.15776-71.15776 39.13216 0 71.14752 32.02048 71.14752 71.15776 0 39.12704-31.42144 71.14752-71.14752 71.14752z m285.7984 0c-39.1424 0-71.15264-32.02048-71.15264-71.14752 0-39.1424 32.01536-71.15776 71.15264-71.15776 39.13216 0 71.14752 32.02048 71.14752 71.15776 0.00512 39.12704-32.01536 71.14752-71.14752 71.14752z m-285.7984-285.2096c-39.1424 0-71.15776-32.01024-71.15776-71.14752s32.02048-71.14752 71.15776-71.14752c39.13216 0 71.14752 32.01024 71.14752 71.14752s-31.42144 71.14752-71.14752 71.14752z m285.7984 0c-39.1424 0-71.15264-32.01024-71.15264-71.14752s32.01536-71.14752 71.15264-71.14752c39.13216 0 71.14752 32.01024 71.14752 71.14752s-32.01536 71.14752-71.14752 71.14752z m-285.7984-285.79328c-39.1424 0-71.15776-32.02048-71.15776-71.15776s32.02048-71.14752 71.15776-71.14752c39.13216 0 71.14752 32.01024 71.14752 71.14752s-31.42144 71.15776-71.14752 71.15776z m285.7984 0c-39.1424 0-71.15264-32.02048-71.15264-71.15776s32.01536-71.14752 71.15264-71.14752c39.13216 0 71.14752 32.01024 71.14752 71.14752s-32.01536 71.15776-71.14752 71.15776z"  horiz-adv-x="1024" />

    
    <glyph glyph-name="baoming" unicode="&#59177;" d="M950.66 500.44000031250005l-46.6399996875 41.379999375c-18.96 16.8-49.32 14.7199996875-65.94-3.96L447.86 97.79999999999995l-45-168.1999996875 161.58 64.8799996875 390.1999996875 440.02000031250003a46.3000003125 46.3000003125 0 0 1 11.64 33.779999999999994 46.32 46.32 0 0 1-15.619999687499998 32.160000000000004zM814.9200003125001 613.7599996875V724.8a113.5999996875 113.5999996875 0 0 1-113.60000062499999 113.5999996875H171.20000000000005a113.5999996875 113.5999996875 0 0 1-113.5999996875-113.5999996875v-681.5999999999999a113.5999996875 113.5999996875 0 0 1 113.5999996875-113.5999996875h153.2599996875l5.240000625 19.5799996875 45 168.1999996875 4.62 17.279999999999998 11.859999375 13.38L781.5000003125001 588.1999996874999c9.4999996875 10.6600003125 21.0199996875 18.9 33.42 25.56zM609.26-69.12l-3.1600003125000002-1.2799996875h95.240000625a113.5999996875 113.5999996875 0 0 1 113.5999996875 113.5999996875v119.5999996875l-193.8199996875-218.559999375-11.8600003125-13.3600003125z"  horiz-adv-x="1024" />

    
    <glyph glyph-name="SCRM" unicode="&#59022;" d="M362.77333333 322.45333332999996c-25.38666667 25.17333333-39.78666667 59.73333333-39.78666666 95.78666667V561.49333333c0 26.98666667 7.89333333 52.05333333 21.44 73.06666667-6.29333333 1.49333333-12.58666667 2.24-19.09333334 2.24h-101.12c-45.22666667 0-82.24-37.65333333-82.24-83.62666667v-131.62666666c0-32.21333333 18.13333333-60.16 44.48-74.24v-257.17333334h66.45333334L277.33333333 253.01333333000002l24.32-162.77333333h61.12V322.45333332999996z m242.88 14.82666667c29.86666667 15.57333333 48.74666667 46.82666667 48.85333334 80.96V561.49333333c-0.10666667 50.13333333-40.10666667 90.88-89.49333334 90.98666667H454.82666667c-49.38666667-0.10666667-89.28-40.85333333-89.49333334-90.98666667v-143.14666666c0-34.98666667 19.73333333-65.49333333 48.42666667-80.74666667v-279.78666667h72.32l26.56 177.06666667 26.56-177.06666667h66.45333333v279.46666667zM512.53333333 861.54666667c34.13333333 0.74666667 66.02666667-17.28 83.41333334-47.25333334 17.28-29.97333333 17.28-67.09333333 0-97.06666666s-49.17333333-48.10666667-83.41333334-47.25333334c-51.2 1.17333333-92.16 43.73333333-92.16 95.78666667s40.96 94.61333333 92.16 95.78666667zM658.13333333 322.45333332999996v-232.21333333h61.12l24.32 162.77333333L768 90.24000000000001h66.45333333V347.41333333c26.34666667 13.97333333 44.48 42.02666667 44.48 74.24V553.17333333c0 45.97333333-36.90666667 83.62666667-82.24 83.62666667H695.46666667c-6.50666667 0-12.90666667-0.74666667-18.98666667-2.24 13.54666667-21.12 21.44-46.18666667 21.44-73.06666667v-143.14666666c0-36.16-14.4-70.72-39.78666667-95.89333334z m85.54666667 506.56c-30.93333333 0-59.52-16.74666667-74.98666667-44.05333333-15.46666667-27.2-15.46666667-60.8 0-88s44.05333333-44.05333333 74.98666667-43.94666667c47.78666667 0 86.61333333 39.36 86.61333333 88 0 48.53333333-38.72 88-86.61333333 88z m-466.45333333 0c30.93333333 0 59.52-16.74666667 74.98666666-44.05333333 15.46666667-27.2 15.46666667-60.8 0-88s-44.05333333-44.05333333-74.98666666-44.05333333c-47.78666667 0-86.61333333 39.46666667-86.61333334 88s38.82666667 88.10666667 86.61333334 88.10666666zM886.4 150.08000000000004c63.36-25.38666667 101.12-57.28 101.12-92.05333333 0-82.45333333-213.33333333-149.33333333-476.48-149.33333334-263.04 0-476.37333333 66.88-476.37333333 149.33333334 0 34.77333333 37.76 66.66666667 101.12 92.05333333-15.14666667-10.77333333-23.46666667-22.29333333-23.46666667-34.34666667 0-56 178.56-101.44 398.82666667-101.44 220.37333333 0 398.82666667 45.44 398.82666666 101.44 0 12.05333333-8.32 23.57333333-23.57333333 34.34666667z"  horiz-adv-x="1024" />

    
    <glyph glyph-name="weixinzhifu" unicode="&#59129;" d="M390.381889 251.200183c-61.291983-37.02299-70.38298 20.775994-70.38298 20.775994l-76.809978 194.149945c-29.559992 92.261974 25.575993 41.596988 25.575993 41.596988s47.308987-38.763989 83.216976-62.383982c35.88599-23.631993 76.788978-6.939998 76.788979-6.939998L930.949736 689.470058C838.289763 814.353023 685.246806 896 511.974855 896 229.204935 896 0 678.708062 0 410.648137 0 256.445181 75.889979 119.23022 194.115945 30.290245l-21.321994-132.755962s-10.399997-38.752989 25.622993-20.775994c24.540993 12.242997 87.107975 56.183984 124.357965 82.886976A535.231848 535.231848 0 0 1 511.999855-74.714725c282.74792 0 511.998855 217.291938 511.998855 485.351862 0 77.640978-19.319995 150.969957-53.532985 216.062939C810.45977 522.434106 438.327876 280.110174 390.381889 251.200183z"  horiz-adv-x="1024" />

    
    <glyph glyph-name="leixing" unicode="&#58895;" d="M91.6 896h293.51c22.47-0.62 44.71-9.35 61.16-24.74 15.23-13.87 25.49-32.98 28.86-53.29 1.51-8.91 1.4-17.98 1.37-26.98 0.01-90 0-179.99 0.01-269.98 0.08-8.71-0.25-17.48-1.95-26.05-3.35-16.33-11.05-31.78-22.3-44.1-12.72-14.15-29.9-24.21-48.46-28.36-9.74-2.33-19.81-2.56-29.77-2.5H110c-9.94 0.15-20.03-0.63-29.82 1.54-16.44 3.54-30.83 13.43-42.4 25.35C15.87 470.29 1.96 501.36 0 533.42V804.43c0.54 25.04 11.44 49.71 29.96 66.63C46.52 886.6 68.94 895.47 91.6 896m-1.37-49.38c-18.68-1.6-35.34-15.68-40.69-33.54-2.09-6.8-2.06-14-2.04-21.05 0-92.01 0.01-184.02 0-276.03 0.02-6 0.57-12.06 2.55-17.77 4.84-14.97 17.66-27 32.87-30.97 7.84-2.12 16.04-1.71 24.07-1.76 90.7 0.01 181.39-0.04 272.09 0.02 12.84-0.3 25.85 4.28 34.91 13.55 9.3 8.66 14.63 21.2 14.51 33.9-0.03 96.03 0.05 192.06-0.05 288.09-0.16 23.96-21.49 45.46-45.46 45.7-97.59-0.1-195.18 0.17-292.76-0.14zM638.82 896h293.59c20.06-0.51 39.94-7.43 55.72-19.89 21.94-16.94 35.35-44.06 35.87-71.74v-292.74c-0.47-16.46-5.12-32.82-13.78-46.86-13.95-23.07-38.38-39.42-65.04-43.48-9.3-1.48-18.75-1.29-28.14-1.29-90.36-0.01-180.72 0.01-271.08-0.01-9.13-0.14-18.36 0.8-26.94 4.05-19.54 7.2-35.2 22.21-46.86 39.1-15.45 22.8-25.12 50.07-24.67 77.8 0.02 80.71 0 161.41 0.01 242.12 0.09 9.31-0.3 18.65 0.49 27.94 2.24 26.66 16.71 51.98 38.56 67.43C601.67 889.44 620.17 895.41 638.82 896m-0.53-49.33c-23.01-1.62-42.87-22.45-43.04-45.58 0-96.72-0.01-193.43 0.01-290.15 0.41-22.48 19.36-42.79 41.7-44.96 10.65-0.9 21.35-0.32 32.02-0.48h255.98c4.04 0.14 8.12 0.18 12.12 0.88 16.6 2.73 30.9 15.4 36.42 31.17 3.66 10.1 2.22 20.96 2.5 31.47-0.01 90.67 0.02 181.35-0.01 272.02-0.21 21.73-17.7 41.63-39.06 45.09-4.94 1-10.01 0.51-15 0.62-94.55-0.05-189.1 0.11-283.64-0.08zM35.94 328.12c15.34 12.03 34.57 19.08 54.07 19.63 98 0.01 196 0 294.01 0 21.88-0.12 43.61-8.31 60.1-22.7 14.79-12.73 25.4-30.24 29.77-49.26 2.33-9.42 2.71-19.18 2.62-28.84-0.01-79.98-0.01-159.96-0.01-239.93-0.13-15.32 0.29-30.64-0.23-45.95-1.14-30.32-18.3-59.45-44.28-75.12-13.97-8.77-30.35-13.34-46.78-13.95H90.85c-14.9 0.75-29.09 6.92-40.84 15.92-12.72 9.68-22.98 22.32-31.02 36.07C8.21-57.52 1.33-36.63 0-15.21V258.57c1.2 26.95 14.53 53.08 35.94 69.55m56.35-29.46c-15.54-0.52-29.93-9.88-37.97-22.97-5.04-7.94-6.88-17.44-6.82-26.74 0.01-93.99-0.01-187.98 0.01-281.97 0.02-7.49 1.26-15.09 4.55-21.88 7.43-16.44 24.85-27.68 42.91-27.59 95.34-0.02 190.68-0.01 286.02-0.01 9.11 0.05 18.2 2.76 25.84 7.74 11.24 7.23 19.1 19.43 21.08 32.65 0.95 5.99 0.48 12.07 0.59 18.1-0.01 91.99 0.01 183.98-0.01 275.96 0.01 13.16-5.96 26.02-15.84 34.67-8.51 7.96-20.11 12.23-31.72 12.14-96.21-0.08-192.43 0.11-288.64-0.1zM583.1 327.84c16.57 13.12 37.74 20.43 58.9 19.92 90.99-0.02 181.98 0 272.97-0.01 11.59-0.12 23.35 0.7 34.75-1.95 16.69-3.44 32.36-11.61 44.76-23.3 18.26-16.91 28.93-41.39 29.52-66.22v-292.63c-0.52-19.62-7.08-39.1-19.07-54.68-16.87-22.58-44.41-36.43-72.55-36.97H638.59c-23.2 1.04-43.71 15.05-58.25 32.37-20.96 25.12-33.77 57.69-32.85 90.62 0.01 81.35 0.01 162.7 0.01 244.05 0.07 10.7-0.51 21.51 1.52 32.08 3.91 22.24 16.32 42.8 34.08 56.72m57.15-29.15c-21.33-0.56-40.71-17.72-44.29-38.66-0.99-4.95-0.68-10-0.71-15.01v-267.03c0.13-9.38-0.87-19.07 2.47-28.07 6.02-18.69 24.6-32.33 44.26-32.41 94-0.03 188.01 0 282.02-0.02 8.77-0.33 17.78 0.92 25.63 5.04 15.57 7.52 26.11 24.19 26.36 41.47 0.01 96.34 0.02 192.68-0.01 289.01-0.21 19.98-15.01 38.41-34.04 43.9-9.08 2.69-18.62 1.63-27.94 1.84-91.25-0.04-182.5 0.09-273.75-0.06z"  horiz-adv-x="1024" />

    
    <glyph glyph-name="yingxiao" unicode="&#58886;" d="M951.139061-126.519931H32.925043v77.158332h956.799676v-77.158332h-38.585658zM869.345775 745.409474c-10.801907-9.256923-21.590831-15.43686-30.860736-24.667817-94.127193-80.274267-188.215438-162.067552-280.862562-242.289887-24.667816-21.603814-47.84258-24.667816-75.613348-6.179937-63.266457 40.117659-129.622883 75.613348-191.357339 117.288974-35.495689 24.667816-64.08439 24.200426-93.400142-5.115326-26.238767-26.238767-57.125469-47.84258-84.883254-70.991378-20.058829-15.43686-41.662643-24.667816-61.734455-3.089969s-2.272036 37.521047 16.241809 52.957907c46.297596 38.572675 92.595192 75.613348 138.918754 114.250938 23.148798 20.058829 43.220611 18.513845 69.459378 3.089969 78.703317-49.335632 157.406634-95.685161 239.199919-145.059743 100.294147 86.428238 199.069277 172.843493 300.921391 260.803733-15.462826 15.358961-26.264733 26.160868-41.766508 43.142712 70.991378 16.968861 137.360787 33.950705 211.429151 54.009535-20.006897-70.991378-36.975758-132.712851-55.502586-199.069277-21.590831 16.968861-40.117659 32.457653-60.189472 50.919566zM310.71062 444.488082c0 52.46455-6.179937 84.870271-64.824425 101.852115C184.177706 495.407648 120.898266 444.475099 59.16381 393.555533 51.451871 387.388579 32.925043 373.496704 32.925043 365.771782v-353.411908h277.837509c-0.051932 125.013896 1.493052 308.659296-0.051932 432.128208z m-43.064814-391.815803H75.314738v280.563952c0 6.128005 12.827264 17.150624 18.176285 22.071204 42.740237 40.416269 111.12202 94.490719 153.862258 134.919971 25.537681-17.527133 20.305508-52.841059 20.305508-94.490719 1.051628-98.035095-0.012983-243.821889-0.012983-343.064408zM506.689928 408.97941c-43.207628-3.076985-134.257835 50.932549-134.257835 50.932549v-447.552085h30.873719c78.703317-1.532001 149.681712 0 231.474997 0h15.488792V459.911959s-98.814079-47.84258-143.579673-50.932549z m105.474389-355.735876h-11.165433c-59.16381 0-110.498834-1.220408-167.481489 0H411.251445v343.92129s65.850086-30.094736 97.100315-27.627954c32.379755 2.466782 103.864489 27.627954 103.864489 27.627954zM948.062075 638.922406l-72.523379 40.117659s-86.428238-75.613348-125.000913-106.461102c-21.603814-18.513845-38.572675-24.667816-38.572675-50.919565v-509.299524l277.837509 2.596612V738.749163z m1.025662-586.250127H752.381377V491.603611c0 22.136119 12.25601 27.35531 27.86165 42.986915 27.861649 26.057004 100.449944 84.675525 100.449944 84.675525l54.853433-29.964905 13.52835-7.1277z"  horiz-adv-x="1024" />

    
    <glyph glyph-name="kujialeqiyezhan_ziyouputie" unicode="&#58973;" d="M300.8 768h-120A52.8 52.8 0 0 1 128 715.2v-120a52.8 52.8 0 0 1 52.8-51.2h120a52.8 52.8 0 0 1 51.2 51.2v120A52.8 52.8 0 0 1 300.8 768zM320 595.2a20.8 20.8 0 0 0-19.2-19.2h-120a20.8 20.8 0 0 0-20.8 19.2v120a20.8 20.8 0 0 0 20.8 20.8h120a20.8 20.8 0 0 0 19.2-20.8zM300.8 528h-120A52.8 52.8 0 0 1 128 475.2v-120a52.8 52.8 0 0 1 52.8-51.2h120a52.8 52.8 0 0 1 51.2 51.2v120a52.8 52.8 0 0 1-51.2 52.8zM320 355.20000000000005a20.8 20.8 0 0 0-19.2-19.2h-120a20.8 20.8 0 0 0-20.8 19.2v120a20.8 20.8 0 0 0 20.8 20.8h120a20.8 20.8 0 0 0 19.2-20.8zM849.6 406.4a54.4 54.4 0 0 1-33.6-4.8 57.6 57.6 0 0 1-51.2 56 54.4 54.4 0 0 1-43.2-14.4l-4.8-6.4a75.2 75.2 0 0 1-43.2 22.4 59.2 59.2 0 0 1-33.6-8v97.6a59.2 59.2 0 0 1-48 59.2v107.2A52.8 52.8 0 0 1 539.2 768h-118.4a52.8 52.8 0 0 1-52.8-52.8v-116.8a52.8 52.8 0 0 1 52.8-54.4H528v-16h-107.2a52.8 52.8 0 0 1-52.8-52.8v-124.8a51.2 51.2 0 0 1 3.2-19.2 41.6 41.6 0 0 1 30.4-24 78.4 78.4 0 0 1 9.6-43.2l75.2-134.4c6.4-17.6 52.8-129.6 113.6-129.6H800c94.4 0 96 153.6 96 160V347.20000000000005a57.6 57.6 0 0 1-46.4 59.2zM420.8 576a20.8 20.8 0 0 0-20.8 20.8v118.4a20.8 20.8 0 0 0 20.8 20.8h116.8a20.8 20.8 0 0 0 22.4-20.8V608a16 16 0 0 1 1.6-4.8l-14.4-9.6a56 56 0 0 1-12.8-17.6h-112z m97.6-272h9.6v-17.6zM400 475.2a20.8 20.8 0 0 0 20.8 20.8H528v-160h-30.4a57.6 57.6 0 0 1-62.4 20.8 49.6 49.6 0 0 1-24-19.2 14.4 14.4 0 0 0-9.6 4.8 20.8 20.8 0 0 0-1.6 8zM864 160c0-1.6-1.6-128-64-128H600c-28.8 0-67.2 64-84.8 110.4h-1.6l-75.2 134.4a43.2 43.2 0 0 0-4.8 35.2 20.8 20.8 0 0 0 11.2 12.8c9.6 3.2 25.6-6.4 33.6-20.8l49.6-89.6h1.6v-3.2h22.4V552a25.6 25.6 0 0 0 8 17.6 24 24 0 0 0 17.6 6.4 27.2 27.2 0 0 0 30.4-27.2v-273.6a16 16 0 0 1 32 0v126.4a25.6 25.6 0 0 0 9.6 17.6 28.8 28.8 0 0 0 22.4 8c14.4-1.6 33.6-17.6 33.6-28.8v-123.2a16 16 0 0 1 32 0v126.4a25.6 25.6 0 0 0 8 17.6 24 24 0 0 0 17.6 6.4 27.2 27.2 0 0 0 20.8-27.2v-123.2a16 16 0 0 1 32 0v72a28.8 28.8 0 0 0 9.6 22.4 22.4 22.4 0 0 0 17.6 4.8 27.2 27.2 0 0 0 20.8-27.2z"  horiz-adv-x="1024" />

    
    <glyph glyph-name="recommend" unicode="&#58885;" d="M500.500085 653.994234c-52.299614 0-87.299356-45.399665-87.299357-99.999262 0-3.099977-0.199999-5.999956 0-8.999934-2.69998-102.099247-83.399385-184.198642-179.398677-195.498559l-0.699995-477.496479h474.996498c17.499871 0 27.399798 4.599966 43.39968 15.199888 15.199888 10.099926 26.699803 23.999823 34.199748 39.699707 2.099985 3.199976 74.199453 327.197588 75.99944 346.397446 1.39999 20.499849-2.999978 41.699693-14.199896 60.599553-17.59987 29.599782-43.299681 41.599693-74.299452 42.899684-1.599988 0.199999-187.698616 0.999993-187.698616 0.999993 12.299909 36.799729 15.699884 80.599406 15.699884 121.799102 0 26.099808-2.799979 52.199615-8.299938 77.799426h-0.499997c-9.299931 43.899676-46.899654 76.599435-91.899322 76.599435z m-257.098105-781.894235h-0.899993 0.199999c-0.099999 0-0.099999 0 0 0h0.499996c0.099999 0 0.099999 0 0 0 0.099999-0.099999 0.199999 0 0.199998 0z m754.494437 887.393457c-1.599988 5.099962-5.799957 8.899934-10.999918 10.199925l-106.399216 25.79981-57.299577 93.199313c-4.499967 7.199947-13.899898 9.49993-21.099845 4.999963-1.999985-1.29999-3.799972-2.999978-4.999963-4.999963l-57.399577-93.199313-106.399215-25.79981c-8.19994-1.999985-13.299902-10.299924-11.299917-18.499863 0.599996-2.299983 1.699987-4.499967 3.199976-6.299954l70.899478-83.399385-8.399938-109.099196c-0.599996-8.499937 5.699958-15.899883 14.199895-16.499878 2.399982-0.199999 4.799965 0.199999 6.999948 1.099992l101.199254 41.699693L911.297056 536.995097c4.899964-1.999985 10.599922-1.29999 14.89989 1.799987 4.299968 3.099977 6.699951 8.299939 6.299954 13.599899l-8.299939 109.099196 70.899477 83.399385c3.399975 3.999971 4.499967 9.49993 2.799979 14.599892zM500.500085 601.894618c19.699855 0 36.699729-14.699892 41.399695-35.699736l2.799979-12.099911c3.099977-17.899868 4.699965-36.099734 4.699965-54.2996 0-44.69967-4.299968-79.099417-12.999904-105.199224l-26.099807-74.299452s250.798151 0.199999 260.998075 0c18.199866-0.799994 25.399813-6.999948 31.599767-17.399872 6.299954-10.699921 7.399945-21.299843 7.099948-28.799788-4.699965-29.299784-63.099535-285.997891-72.899463-325.597599-1.799987-4.899964-8.599937-9.899927-13.699899-13.5999-5.699958-4.699965-10.89992-5.199962-15.399886-5.199961H292.201621v377.997213c102.199246 31.999764 170.198745 126.299069 173.198723 235.89826l0.099999 2.899979-0.199999 1.899986v1.099992l0.1 4.499967c0 23.09983 10.999919 47.899647 35.099741 47.899646M55.703364 318.796706h117.399135V-100.00020600000005H55.703364zM145.102705 290.796912v-362.697326H83.803157V290.796912h61.299548m56.099587 55.999587H27.703571V-128h173.498721V346.79649900000004z"  horiz-adv-x="1024" />

    
    <glyph glyph-name="kebiaodianming" unicode="&#58998;" d="M835.66364445 414.30584889l-31.49937778 31.45728-168.17493334 168.21475556 49.34087112 49.37955555a135.33184 135.33184 0 0 1 39.68796444 95.98976c0.07509333 34.61233778-13.30517333 69.45564445-39.68796444 95.91352889a135.80743111 135.80743111 0 0 1-95.98976 39.76533333c-34.65216 0-69.57169778-13.30744889-96.02844445-39.76533333L197.72529778 558.29162667c-4.26780445-3.30865778-8.30691555-6.99960889-12.19015111-10.84529778-26.45902222-26.38279111-39.76533333-61.37969778-39.72778667-95.99203556-0.03754667-34.61006222 13.26876445-69.5296 39.72778667-95.91352888l199.70958222-199.74940445-49.37841778-49.30218667a135.63335111 135.63335111 0 0 1-39.72778666-95.98976 135.50478222 135.50478222 0 0 1 39.7664711-95.98862222c26.34410667-26.38506667 61.22382222-39.76760889 95.83616-39.76760889h0.15246223c34.57365333 0 69.49319111 13.30631111 95.95335111 39.76760889h0.03868444L835.66364445 222.32405332999997c26.42033778 26.46016 39.80288 61.37742222 39.72437333 95.98976 0.07850667 34.61233778-13.30517333 69.60924445-39.72437333 95.99203556z m-295.62652445 394.42204444c13.65333333 13.61351111 31.34350222 20.30478222 49.30446222 20.30478222 17.95754667 0 35.61130667-6.69127111 49.30104889-20.38328888 13.69315555-13.69088 20.38328889-31.38218667 20.46179556-49.30332445-0.07850667-17.99850667-6.76864-35.68867555-20.46179556-49.37955555l-19.46055111-19.45827556-206.01742222-205.97987556a135.08721778 135.08721778 0 0 1-35.68867556 62.91683556c-17.72999111 17.76753778-39.38076445 29.61180445-62.14656 35.53393778l224.70769778 225.74876444z m-58.83904-847.53180444c-13.68974222-13.68974222-31.41973333-20.37987555-49.45692445-20.45838222-17.84490667 0.07850667-35.49639111 6.76864-49.18840888 20.45838222-13.69088 13.69201778-20.41969778 31.30823111-20.45952 49.30446222 0.03982222 17.99736889 6.76864 35.61130667 20.42197333 49.30104889l49.34087111 49.37955555 17.88245334-17.84490666 31.45841777-31.45614222c13.68974222-13.76938667 20.38215111-31.38218667 20.45838223-49.37955556-0.07509333-17.99736889-6.76750222-35.61244445-20.45724445-49.30446222z m307.85194667 307.73930666L563.38204445 43.41987555000003c-5.73098667 23.07413333-17.53884445 45.07192889-35.49639112 63.07043556l-31.53464888 31.45841778-264.20565334 264.20337778c-13.65219555 13.69088-20.38215111 31.38218667-20.38215111 49.30218666 0 17.99964445 6.73109333 35.61130667 20.38215111 49.38069334 13.76824889 13.69201778 31.38218667 20.38328889 49.34200889 20.45952 17.95982222-0.07623111 35.64999111-6.76750222 49.34087111-20.45952 13.69201778-13.69088 20.42083555-31.38104889 20.49934222-49.38069334-0.07850667-17.92-6.80732445-35.61130667-20.49934222-49.30218666l46.64888889-46.61134222 211.86446222 211.82691555L757.5552 399.15292445l31.49596445-31.5346489c13.65447111-13.69088 20.38442667-31.30481778 20.38442666-49.30332444-0.00113778-17.92-6.73109333-35.61130667-20.38556444-49.37955556zM573.65162667 509.14190222L397.66812445 333.15953778000005l46.64888888-46.68871111 175.98350222 175.98350222-46.64888888 46.68757333z m70.41365333-70.37838222L468.1216 262.78115555l46.57152-46.68529777L690.67662222 392.07708445l-46.61134222 46.68643555z m-105.60398222-246.35960889l46.61248-46.68757333 175.98122667 175.98236444-46.65002667 46.61248-175.94368-175.90727111z"  horiz-adv-x="1024" />

    
    <glyph glyph-name="zhuanyizhong" unicode="&#59245;" d="M512-108.49523799999997C238.933333-108.49523799999997 19.504762 110.93333299999995 19.504762 384S238.933333 876.495238 512 876.495238s492.495238-219.428571 492.495238-492.495238-219.428571-492.495238-492.495238-492.495238z m0 58.514286c238.933333 0 433.980952 195.047619 433.980952 433.980952s-195.047619 433.980952-433.980952 433.980952-433.980952-195.047619-433.980952-433.980952 195.047619-433.980952 433.980952-433.980952zM375.466667 320.60952399999996h277.942857c14.628571 0 29.257143-14.628571 29.257143-29.257143s-14.628571-29.257143-29.257143-29.257143H477.866667l24.380952-14.628571c14.628571-9.752381 19.504762-24.380952 9.752381-39.009524-9.752381-14.628571-24.380952-19.504762-39.009524-9.752381l-117.028571 68.266667c-9.752381 4.87619-14.628571 14.628571-14.628572 24.380952 0 4.87619 0 14.628571 4.876191 19.504762 4.87619 4.87619 19.504762 9.752381 29.257143 9.752381zM546.133333 505.904762l-24.380952 14.628571c-14.628571 9.752381-19.504762 24.380952-9.752381 39.009524 9.752381 14.628571 24.380952 19.504762 39.009524 9.752381l117.028571-68.266667c14.628571-9.752381 19.504762-24.380952 9.752381-39.009523-4.87619-9.752381-14.628571-14.628571-24.380952-14.628572H370.590476c-14.628571 0-29.257143 14.628571-29.257143 29.257143s14.628571 29.257143 29.257143 29.257143h175.542857z"  horiz-adv-x="1024" />

    
    <glyph glyph-name="zuocedaohang_yuansuojieshao" unicode="&#59000;" d="M967.111111 36.977778h-34.133333V497.777778c0 28.444444-22.755556 51.2-51.2 51.2h-221.866667V844.8c0 28.444444-22.755556 51.2-51.2 51.2H113.777778c-22.755556 0-45.511111-22.755556-45.511111-51.2v-807.822222H56.888889c-28.444444 0-51.2-22.755556-51.2-51.2v-68.266667c0-22.755556 22.755556-45.511111 51.2-45.511111h910.222222c28.444444 0 51.2 22.755556 51.2 51.2V-14.222222c0 28.444444-22.755556 51.2-51.2 51.2z m-449.422222 182.044444c0-28.444444-22.755556-51.2-51.2-51.2H261.688889c-28.444444 0-51.2 22.755556-51.2 51.2v17.066667c0 28.444444 22.755556 51.2 51.2 51.2h210.488889c28.444444 0 51.2-22.755556 51.2-51.2v-17.066667z m0 221.866667c0-28.444444-22.755556-51.2-51.2-51.2H261.688889c-28.444444 0-51.2 22.755556-51.2 51.2v11.377778c0 28.444444 22.755556 51.2 51.2 51.2h210.488889c28.444444 0 51.2-22.755556 51.2-51.2V440.888889z m0 233.244444c0-28.444444-22.755556-51.2-51.2-51.2H261.688889c-28.444444 0-51.2 22.755556-51.2 51.2v17.066667c0 28.444444 22.755556 51.2 51.2 51.2h210.488889c28.444444 0 51.2-22.755556 51.2-51.2v-17.066667z m318.577778-540.444444h-130.844445c-22.755556 0-39.822222 17.066667-39.822222 39.822222 0 22.755556 17.066667 39.822222 39.822222 39.822222h130.844445c22.755556 0 39.822222-17.066667 39.822222-39.822222 5.688889-22.755556-11.377778-39.822222-39.822222-39.822222z m0 164.977778h-130.844445c-22.755556 0-39.822222 17.066667-39.822222 39.822222 0 28.444444 17.066667 45.511111 39.822222 45.511111h130.844445c22.755556 0 39.822222-17.066667 39.822222-39.822222 5.688889-22.755556-11.377778-45.511111-39.822222-45.511111z m0 0"  horiz-adv-x="1024" />

    
    <glyph glyph-name="zhangdan" unicode="&#59021;" d="M704 416c12.8 0 21.333 8.533 21.333 21.333S716.8 458.667 704 458.667H584.533L684.8 558.933c8.533 8.534 8.533 21.334 0 29.867-8.533 8.533-21.333 8.533-29.867 0L524.8 458.667h-25.6L369.067 588.8c-8.534 8.533-21.334 8.533-29.867 0-8.533-8.533-8.533-21.333 0-29.867l100.267-100.266H320c-12.8 0-21.333-8.534-21.333-21.334S307.2 416 320 416h170.667v-128H320c-12.8 0-21.333-8.533-21.333-21.333S307.2 245.333 320 245.333h170.667v-170.666c0-12.8 8.533-21.334 21.333-21.334s21.333 8.534 21.333 21.334V245.333H704c12.8 0 21.333 8.534 21.333 21.334S716.8 288 704 288H533.333V416H704zM853.333 821.333H682.667C682.667 844.8 663.467 864 640 864H384c-23.467 0-42.667-19.2-42.667-42.667H170.667c-36.267 0-64-27.733-64-64V-32c0-36.267 27.733-64 64-64h682.666c36.267 0 64 27.733 64 64V757.333c0 36.267-27.733 64-64 64zM874.667-32c0-12.8-8.534-21.333-21.334-21.333H170.667c-12.8 0-21.334 8.533-21.334 21.333V757.333c0 12.8 8.534 21.334 21.334 21.334h682.666c12.8 0 21.334-8.534 21.334-21.334V-32z"  horiz-adv-x="1024" />

    
    <glyph glyph-name="huaban" unicode="&#58913;" d="M869.92 741.92H154.08A89.76 89.76 0 0 1 64 652.32v-536.64a89.76 89.76 0 0 1 89.44-89.6h716.48a89.76 89.76 0 0 1 90.08 89.6V652.32a89.76 89.76 0 0 1-90.08 89.6z m-224-626.24H154.08V294.56h492.16z m0 224H154.08V518.24h492.16z m224-224H690.88V518.24h179.04z"  horiz-adv-x="1024" />

    
    <glyph glyph-name="banjiliebiao" unicode="&#58897;" d="M351.085714 676.571429c14.628571 0 29.257143 14.628571 29.257143 36.571428V808.228571c0 21.942857-14.628571 29.257143-29.257143 29.257143-21.942857 0-29.257143-14.628571-29.257143-29.257143v-95.085714c-7.314286-21.942857 7.314286-36.571429 29.257143-36.571428z m358.4 0c21.942857 0 29.257143 14.628571 29.257143 29.257142V808.228571c0 21.942857-14.628571 29.257143-29.257143 29.257143-21.942857 0-29.257143-14.628571-29.257143-29.257143v-95.085714c-7.314286-21.942857 7.314286-36.571429 29.257143-36.571428z m160.914286-650.971429c0-21.942857-14.628571-29.257143-29.257143-29.257143h-658.285714c-21.942857 0-29.257143 14.628571-29.257143 29.257143V515.657143h716.8v-490.057143z m-21.942857 753.371429H804.571429c-21.942857 0-29.257143-14.628571-29.257143-29.257143 0-21.942857 14.628571-29.257143 29.257143-29.257143h43.885714c7.314286 0 21.942857-14.628571 21.942857-29.257143v-95.085714H153.6V676.571429c0 21.942857 14.628571 29.257143 29.257143 29.257142h65.828571c21.942857 0 29.257143 14.628571 29.257143 29.257143 0 21.942857-14.628571 29.257143-29.257143 29.257143h-65.828571c-51.2 14.628571-95.085714-36.571429-95.085714-87.771428v-650.971429c0-51.2 43.885714-95.085714 95.085714-95.085714h650.971428c51.2 0 95.085714 43.885714 95.085715 95.085714V676.571429c7.314286 51.2-29.257143 102.4-80.457143 102.4z m-402.285714-65.828572h160.914285c21.942857 0 29.257143 14.628571 29.257143 29.257143 0 21.942857-14.628571 29.257143-29.257143 29.257143H446.171429c-21.942857 0-29.257143-14.628571-29.257143-29.257143 0-21.942857 7.314286-29.257143 29.257143-29.257143z m-197.485715-592.457143h519.314286c21.942857 0 29.257143 14.628571 29.257143 29.257143s-14.628571 29.257143-29.257143 29.257143H248.685714c-14.628571 7.314286-29.257143-7.314286-29.257143-21.942857s14.628571-36.571429 29.257143-36.571429z m0 197.485715h519.314286c21.942857 0 29.257143 14.628571 29.257143 29.257142 7.314286 21.942857-7.314286 36.571429-21.942857 36.571429H248.685714c-14.628571 0-29.257143-14.628571-29.257143-29.257143 0-21.942857 14.628571-36.571429 29.257143-36.571428z"  horiz-adv-x="1024" />

    
    <glyph glyph-name="biyeguanli" unicode="&#58898;" d="M526.628571 25.6h-58.514285c-131.657143 0-277.942857 73.142857-277.942857 175.542857V369.371429l285.257142-124.342858c14.628571-7.314286 29.257143-7.314286 43.885715 0L804.571429 369.371429v-168.228572c0-102.4-160.914286-175.542857-277.942858-175.542857zM241.371429 296.228571v-87.771428c0-65.828571 124.342857-124.342857 226.742857-124.342857h65.828571c95.085714 0 226.742857 65.828571 226.742857 124.342857V296.228571l-219.428571-95.085714c-29.257143-7.314286-65.828571-7.314286-87.771429 7.314286L241.371429 296.228571z m687.542857-226.742857l-21.942857 29.257143-29.257143-29.257143v58.514286l-58.514286 58.514286h58.514286c-14.628571 14.628571-29.257143 29.257143-29.257143 51.2s14.628571 43.885714 29.257143 51.2V449.828571l-365.714286-146.285714-512 204.8 14.628571 14.628572L0 530.285714l512 212.114286L1024 530.285714l-14.628571-14.628571 14.628571-14.628572-95.085714-36.571428v-175.542857c14.628571-14.628571 29.257143-29.257143 29.257143-51.2s-14.628571-43.885714-29.257143-51.2v-7.314286h58.514285l-58.514285-58.514286v-51.2z m-29.257143 182.857143s-7.314286-7.314286-7.314286-14.628571 0-14.628571 7.314286-14.628572c0 0 7.314286 7.314286 7.314286 14.628572s-7.314286 14.628571-7.314286 14.628571zM109.714286 515.657143L512 347.428571l402.285714 168.228572L512 683.885714 109.714286 515.657143z"  horiz-adv-x="1024" />

    
    <glyph glyph-name="fangqiruyuanguanli" unicode="&#58899;" d="M800.67047573-45.10476159999996h-70.2171424V173.34857173C730.45333333 290.3771424 644.6323808 384 527.60380907 384 644.6323808 384 746.0571424 485.4247616 746.0571424 602.4533333300001V813.1047616h62.4152384c23.40571413 0 31.2076192 15.60380907 31.2076192 31.2076192s-15.60380907 31.2076192-31.2076192 31.2076192h-624.1523808c-23.40571413 0-31.2076192-15.60380907-31.2076192-31.2076192s15.60380907-31.2076192 31.2076192-31.2076192h62.4152384v-218.45333333C254.5371424 485.4247616 340.35809493 384 457.38666667 384 340.35809493 384 254.5371424 290.3771424 254.5371424 173.34857173v-218.45333333h-70.2171424c-23.40571413 0-31.2076192-15.60380907-31.2076192-31.2076192 0-23.40571413 15.60380907-31.2076192 31.2076192-31.2076192h608.54857173c23.40571413 0 31.2076192 15.60380907 31.2076192 31.2076192 0 23.40571413-15.60380907 31.2076192-23.4057152 31.2076192zM309.15047573 602.4533333300001V813.1047616H668.03809493v-218.45333333c0-85.82095253-70.2171424-156.03809493-163.84-156.03809494h-39.0095232c-85.82095253 7.80190507-156.03809493 78.01904747-156.038096 163.84z m366.68952427-647.55809493H309.15047573V173.34857173c0 85.82095253 70.2171424 156.03809493 163.84 156.03809494h46.81142934c93.6228576 0 163.84-70.2171424 163.84-156.03809494-7.80190507-46.81142827-7.80190507-218.45333333-7.80190507-218.45333333z"  horiz-adv-x="1024" />

    
    <glyph glyph-name="gerenjiaofeifanganguanli" unicode="&#58900;" d="M994.742857 691.2c0 36.571429-29.257143 58.514286-58.514286 58.514286H95.085714c-36.571429 0-65.828571-29.257143-65.828571-58.514286v-117.028571h958.171428l7.314286 117.028571zM994.742857 508.342857H29.257143V18.285713999999984c0-29.257143 21.942857-58.514286 58.514286-58.514285H936.228571c29.257143 0 58.514286 21.942857 58.514286 58.514285V508.342857z m-614.4-358.4H138.971429c-14.628571 0-29.257143 14.628571-29.257143 29.257143s14.628571 29.257143 29.257143 29.257143h241.371428c14.628571 0 29.257143-14.628571 29.257143-29.257143s-14.628571-29.257143-29.257143-29.257143zM438.857143 266.97142899999994H138.971429c-14.628571 0-29.257143 14.628571-29.257143 29.257142s14.628571 29.257143 29.257143 29.257143H438.857143c14.628571 0 29.257143-14.628571 29.257143-29.257143s-14.628571-29.257143-29.257143-29.257142z m226.742857 0h-58.514286c-21.942857 0-36.571429 14.628571-36.571428 29.257142s14.628571 29.257143 36.571428 29.257143h58.514286c14.628571 0 29.257143-14.628571 29.257143-29.257143s-14.628571-29.257143-29.257143-29.257142z"  horiz-adv-x="1024" />

    
    <glyph glyph-name="fuwupeizhi" unicode="&#58901;" d="M899.657143 581.485714c0 21.942857-7.314286 29.257143-29.257143 29.257143H687.542857c-21.942857 0-29.257143-7.314286-29.257143-29.257143v-131.657143c0-21.942857 7.314286-29.257143 29.257143-29.257142h182.857143c21.942857 0 29.257143 7.314286 29.257143 29.257142V581.485714zM336.457143 493.714286H153.6c-21.942857 0-29.257143-7.314286-29.257143-29.257143v-124.342857c0-21.942857 7.314286-29.257143 29.257143-29.257143h182.857143c21.942857 0 29.257143 7.314286 29.257143 29.257143V464.457143c0 21.942857-7.314286 29.257143-29.257143 29.257143z m277.942857-168.228572H424.228571c-21.942857 0-29.257143-7.314286-29.257142-29.257143V164.571429c0-21.942857 7.314286-29.257143 29.257142-29.257143h190.171429c21.942857 0 29.257143 7.314286 29.257143 21.942857V296.228571c0 21.942857-7.314286 36.571429-29.257143 29.257143z m-138.971429 29.257143c14.628571-14.628571 43.885714 0 65.828572-7.314286 21.942857 0 21.942857 0 21.942857 21.942858V749.714286c0 73.142857 7.314286 58.514286-65.828571 58.514285-21.942857 0-29.257143-7.314286-29.257143-29.257142v-365.714286c7.314286-21.942857 0-51.2 7.314285-58.514286z m351.085715-175.542857V384c0 14.628571-7.314286 21.942857-21.942857 21.942857h-51.2c-21.942857 0-21.942857-7.314286-21.942858-21.942857v-365.714286c0-65.828571-7.314286-58.514286 58.514286-58.514285 21.942857 0 29.257143 7.314286 29.257143 29.257142l7.314286 190.171429zM263.314286 288.914286h-51.2c-21.942857 0-21.942857-7.314286-21.942857-21.942857V18.285714c0-73.142857-7.314286-58.514286 65.828571-65.828571 21.942857 0 29.257143 7.314286 29.257143 29.257143V266.971429c0 21.942857 0 29.257143-21.942857 21.942857z m-51.2 226.742857h58.514285c14.628571 0 21.942857 0 21.942858 21.942857V749.714286c0 73.142857 7.314286 65.828571-65.828572 65.828571-21.942857 0-29.257143-7.314286-29.257143-29.257143v-248.685714c0-14.628571 0-21.942857 14.628572-21.942857z m526.628571 117.028571c14.628571-7.314286 43.885714 0 73.142857-7.314285 14.628571 0 21.942857 7.314286 21.942857 21.942857V749.714286c0 73.142857 7.314286 58.514286-65.828571 58.514285h-7.314286c-14.628571 0-21.942857-7.314286-21.942857-21.942857v-87.771428c0-21.942857-14.628571-58.514286 0-65.828572z m-168.228571-592.457143v65.828572c0 7.314286 0 14.628571-14.628572 14.628571h-65.828571c-14.628571 0-14.628571-7.314286-14.628572-14.628571v-124.342857c0-14.628571 7.314286-29.257143 21.942858-21.942857 21.942857 7.314286 51.2-14.628571 73.142857 14.628571v14.628571 51.2z"  horiz-adv-x="1024" />

    
    <glyph glyph-name="fuwuzhangdan1" unicode="&#58902;" d="M870.8876192 672.67047573C816.27428587 774.0952384 730.45333333 844.3123808 621.22666667 875.52 590.01904747 883.32190507 551.00952427 891.12380907 512 891.12380907 324.75428587 891.12380907 160.91428587 766.29333333 114.1028576 586.8495242700001c-31.2076192-109.22666667-15.60380907-218.45333333 39.0095232-312.07619094 46.81142827-85.82095253 132.6323808-156.03809493 226.2552384-187.24571413-7.80190507-7.80190507-7.80190507-15.60380907-7.80190507-31.2076192 0-23.40571413 7.80190507-39.00952427 23.40571414-46.81142827-7.80190507-7.80190507-7.80190507-15.60380907-7.801904-23.40571413 0-23.40571413 15.60380907-46.81142827 39.0095232-54.61333333 7.80190507-31.2076192 46.81142827-54.61333333 85.82095253-54.61333334 39.00952427 0 78.01904747 23.40571413 85.82095253 46.81142827 23.40571413 7.80190507 39.00952427 31.2076192 39.0095232 54.61333333 0 7.80190507 0 15.60380907-7.801904 23.40571414 15.60380907 7.80190507 23.40571413 31.2076192 23.40571414 46.81142826 0 7.80190507 0 23.40571413-7.80190507 31.2076192 124.83047573 46.81142827 226.2552384 148.23619093 265.2647616 280.86857174 31.2076192 109.22666667 15.60380907 218.45333333-39.0095232 312.07618986zM512-99.71809493c-23.40571413 0-46.81142827 7.80190507-62.4152384 23.40571413h117.02857173c-7.80190507-15.60380907-31.2076192-23.40571413-54.61333333-23.40571413z m70.2171424 62.41523733H441.7828576c-7.80190507 0-15.60380907 7.80190507-15.60381013 15.60381013s7.80190507 15.60380907 15.60381013 15.60380907h140.4342848c7.80190507 0 7.80190507-7.80190507 7.80190507-15.60380907 7.80190507-7.80190507 0-15.60380907-7.80190507-15.60381013zM512 56.32000000000005c23.40571413 0 54.61333333 0 78.01904747 7.80190507h7.80190506c7.80190507 0 15.60380907-7.80190507 15.60380907-15.60381014s-7.80190507-15.60380907-15.60380907-15.60380906H426.17904747c-7.80190507 0-15.60380907 7.80190507-15.60380907 15.60380906s7.80190507 15.60380907 15.60380907 15.60381014H433.98095253c23.40571413 0 54.61333333-7.80190507 78.01904747-7.80190507z m0 70.2171424c-31.2076192 0-62.4152384 7.80190507-93.6228576 15.60381013-93.6228576 23.40571413-163.84 78.01904747-210.65142827 163.84s-54.61333333 171.64190507-31.2076192 265.2647616C215.5276192 719.48190507 355.96190507 820.90666667 512 820.90666667c31.2076192 0 62.4152384-7.80190507 93.6228576-15.60380907 93.6228576-23.40571413 163.84-85.82095253 210.65142827-163.84s54.61333333-179.44380907 31.2076192-265.26476267C808.4723808 227.96190506999994 668.03809493 126.5371424 512 126.5371424zM621.22666667 742.8876192h-15.60380907l-15.60381013-15.60381013c0-15.60380907 0-23.40571413 15.60381013-31.20761814 70.2171424-15.60380907 124.83047573-78.01904747 140.4342848-156.038096 0-7.80190507 7.80190507-15.60380907 23.4057152-15.60380906 15.60380907 0 23.40571413 15.60380907 15.60380907 23.40571413-7.80190507 93.6228576-78.01904747 163.84-163.84 195.0476192z"  horiz-adv-x="1024" />

    
    <glyph glyph-name="jiaqikuguanli" unicode="&#58903;" d="M601.6 240.64c-15.36 0-25.6-10.24-25.6-25.6s10.24-25.6 25.6-25.6 25.6 10.24 25.6 25.6-10.24 25.6-25.6 25.6z m-25.6-102.4c-15.36 0-25.6-10.24-25.6-25.6s10.24-25.6 25.6-25.6 25.6 10.24 25.6 25.6-10.24 25.6-25.6 25.6z m-153.6 51.2h-25.6v25.6c0 15.36-10.24 25.6-25.6 25.6s-25.6-10.24-25.6-25.6v-25.6h-25.6c-15.36 0-25.6-10.24-25.6-25.6s10.24-25.6 25.6-25.6h25.6v-25.6c0-15.36 10.24-25.6 25.6-25.6s25.6 10.24 25.6 25.6v25.6h25.6c15.36 0 25.6 10.24 25.6 25.6s-10.24 25.6-25.6 25.6z m332.8 614.4h-460.8c-56.32 0-102.4-46.08-102.4-102.4v-614.4c0-56.32 46.08-102.4 102.4-102.4h460.8c56.32 0 102.4 46.08 102.4 102.4V701.44c0 56.32-46.08 102.4-102.4 102.4z m51.2-716.8c0-28.16-23.04-51.2-51.2-51.2h-460.8c-28.16 0-51.2 23.04-51.2 51.2V701.44c0 28.16 23.04 51.2 51.2 51.2h460.8c28.16 0 51.2-23.04 51.2-51.2v-614.4z m-102.4 614.4h-358.4c-28.16 0-51.2-23.04-51.2-51.2v-307.2c0-28.16 23.04-51.2 51.2-51.2h358.4c28.16 0 51.2 23.04 51.2 51.2V650.24c0 28.16-23.04 51.2-51.2 51.2z m0-332.8c0-15.36-10.24-25.6-25.6-25.6h-307.2c-15.36 0-25.6 10.24-25.6 25.6V624.64c0 15.36 10.24 25.6 25.6 25.6h307.2c15.36 0 25.6-10.24 25.6-25.6v-256z m0-230.4c-15.36 0-25.6-10.24-25.6-25.6s10.24-25.6 25.6-25.6 25.6 10.24 25.6 25.6-10.24 25.6-25.6 25.6z m25.6 102.4c-15.36 0-25.6-10.24-25.6-25.6s10.24-25.6 25.6-25.6 25.6 10.24 25.6 25.6-10.24 25.6-25.6 25.6z"  horiz-adv-x="1024" />

    
    <glyph glyph-name="jiaoshiguanli" unicode="&#58904;" d="M944.74565063-98.67784078l-8.32203207-16.64406415H79.25434937v24.96609508c0 49.93219015 8.32203207 116.50844445 24.96609508 183.08469874 16.64406301 66.57625429 49.93219015 133.15250745 99.86438144 174.76266666l8.32203093 8.32203208h124.83047651v-49.93219129H229.05092096c-41.61015922-41.61015922-66.57625429-91.54234937-83.2203173-149.79657045-16.64406301-49.93219015-16.64406301-99.86438144-24.96609621-141.47454066h765.62692096c0 49.93219015-16.64406301 108.18641237-33.28812715 158.11860366-16.64406301 58.25422222-41.61015922 99.86438144-74.89828523 133.15250745H670.11860366v49.93219129H811.59314318c41.61015922-41.61015922 74.89828523-99.86438144 91.54234937-166.44063574 33.28812715-66.57625429 49.93219015-149.79657159 41.61015808-208.05079267zM520.32203207-32.10158763000004l-66.57625429 49.93219129 41.61015921 174.76266667-16.64406414 33.28812601v24.96609621h74.89828637v-24.96609621l-16.64406415-24.96609508 49.93219016-174.76266667-66.57625316-58.25422222z m199.72876174 515.96596907c-16.64406301-58.25422222-41.61015922-108.18641237-74.89828636-141.47454066-33.28812715-33.28812715-74.89828523-58.25422222-133.15250745-66.57625315h-16.64406301c-41.61015922 8.32203207-83.2203173 24.96609507-124.83047651 66.57625315-24.96609507 33.28812715-58.25422222 74.89828523-74.89828637 141.47454066-16.64406301 8.32203207-24.96609507 16.64406301-33.288126 41.61015808-8.32203207 16.64406301-16.64406301 49.93219015-8.32203208 83.2203173v8.32203207l8.32203208 8.32203207 8.32203093 8.32203093c-16.64406301 91.54234937-8.32203207 174.76266667 49.93219129 224.69485796 41.61015922 33.28812715 124.83047651 8.32203207 199.72876174 24.96609508 208.05079381 33.28812715 208.05079381-74.89828523 233.01688889-257.98298397l8.32203093-8.32203207v-8.32203207c0-33.28812715 0-58.25422222-8.32203093-74.89828523-8.32203207-24.96609507-24.96609507-41.61015922-33.28812715-49.93219015z m-24.96609507 91.54234823v8.32203207L678.44063459 592.05079381v16.64406301c0 16.64406301-8.32203207 99.86438144-16.644063 116.50844444-16.64406301-8.32203207-33.28812715 8.32203207-58.25422222 16.64406415l-8.32203207-33.28812715-16.64406301 8.32203207v16.644063l-8.32203207-24.96609507h-16.644063l16.644063 41.61015808c-74.89828523-58.25422222-208.05079381-49.93219015-224.69485681-33.28812601v-8.32203207c0-16.64406301-8.32203207-99.86438144-8.32203208-116.50844445v-16.64406414h-33.28812714c0-16.64406301 0-24.96609507 8.32203207-41.61015808 0-8.32203207 8.32203207-16.64406301 16.644063-16.64406414H345.55936541v-16.644063c16.64406301-58.25422222 41.61015922-99.86438144 66.57625315-133.15250746 24.96609507-24.96609507 58.25422222-41.61015922 99.86438144-49.93219128 41.61015922 8.32203207 74.89828523 24.96609507 99.86438144 58.25422222 24.96609507 33.28812715 49.93219015 74.89828523 66.57625315 133.15250858v8.32203094h8.32203208c8.32203207 0 16.64406301 8.32203207 16.644063 16.64406414s8.32203207 24.96609507 8.32203207 41.61015808c-8.32203207 8.32203207-8.32203207 0-16.644063 0z"  horiz-adv-x="1024" />

    
    <glyph glyph-name="kaibanjihua" unicode="&#58905;" d="M943.542857-62.171429c-14.628571-14.628571-43.885714-21.942857-73.142857-21.942857H146.285714c-21.942857 0-58.514286 7.314286-73.142857 21.942857-14.628571 14.628571-14.628571 43.885714-14.628571 65.828572V683.885714c0 21.942857 7.314286 58.514286 21.942857 73.142857s36.571429 29.257143 73.142857 29.257143h160.914286V852.114286h65.828571v-65.828572h256V852.114286h65.828572v-65.828572h160.914285c21.942857 0 58.514286-14.628571 73.142857-29.257143 14.628571-14.628571 21.942857-51.2 21.942858-73.142857v-680.228571c7.314286-21.942857 7.314286-51.2-14.628572-65.828572z m-43.885714 782.628572H702.171429v-131.657143h-65.828572V720.457143H380.342857v-131.657143h-65.828571V720.457143H117.028571V-18.285714h775.314286V661.942857c7.314286 21.942857 7.314286 58.514286 7.314286 58.514286z m-709.485714-219.428572h643.657142v-65.828571H190.171429v65.828571z m109.714285-160.914285c29.257143 0 51.2-21.942857 51.2-51.2 0-29.257143-21.942857-51.2-51.2-51.2s-58.514286 21.942857-58.514285 51.2c0 29.257143 29.257143 51.2 58.514285 51.2z m0-182.857143c29.257143 0 51.2-21.942857 51.2-51.2 0-29.257143-21.942857-51.2-51.2-51.2s-51.2 21.942857-51.2 51.2c-7.314286 29.257143 21.942857 51.2 51.2 51.2zM512 340.114286c29.257143 0 51.2-21.942857 51.2-51.2 0-29.257143-21.942857-51.2-51.2-51.2-29.257143 0-51.2 21.942857-51.2 51.2 0 29.257143 21.942857 51.2 51.2 51.2z m0-182.857143c29.257143 0 51.2-21.942857 51.2-51.2 0-29.257143-21.942857-51.2-51.2-51.2-29.257143 0-51.2 21.942857-51.2 51.2s21.942857 51.2 51.2 51.2z m212.114286 182.857143c29.257143 0 51.2-21.942857 51.2-51.2 0-29.257143-21.942857-51.2-51.2-51.2-29.257143 0-51.2 21.942857-51.2 51.2 0 29.257143 21.942857 51.2 51.2 51.2z m0-182.857143c29.257143 0 51.2-21.942857 51.2-51.2 0-29.257143-21.942857-51.2-51.2-51.2-29.257143 0-51.2 21.942857-51.2 51.2s21.942857 51.2 51.2 51.2z"  horiz-adv-x="1024" />

    
    <glyph glyph-name="jiaoyujiaoxue" unicode="&#58906;" d="M928.10158763 417.28812715V841.7117457100001c0 8.32203207-8.32203207 16.64406301-16.64406414 16.64406414H262.33904811c-8.32203207 0-16.64406301-8.32203207-16.64406414-16.64406414V716.88127033c0-8.32203207 0-8.32203207-8.32203208-8.32203207H112.54247651c-8.32203207 0-16.64406301 0-16.64406414-8.32203207v-282.94907904c0-8.32203207 0-8.32203207-8.32203093-8.32203208h-49.93219129c-8.32203207 0-16.64406301-8.32203207-16.644063-16.644063v-490.99987285c0-8.32203207 8.32203207-16.64406301 16.644063-16.64406415h957.03365063c8.32203207 0 16.64406301 8.32203207 16.64406415 16.64406415v499.32190379c0 8.32203207-8.32203207 16.64406301-16.64406415 16.64406414H928.10158763c8.32203207-8.32203207 0-8.32203207 0 0zM328.91530126 783.45752349H844.88127033c8.32203207 0 8.32203207 0 8.32203093-8.32203094v-357.8473654c0-8.32203207 0-8.32203207-8.32203093-8.32203208H328.91530126c-8.32203207 0-8.32203207 0-8.32203093 8.32203208l8.32203093 366.16939634c-8.32203207 0 0 0 0 0zM179.11872967 633.66095189h58.25422222c8.32203207 0 8.32203207 0 8.32203208-8.32203093v-208.05079381c0-8.32203207 0-8.32203207-8.32203208-8.32203208H179.11872967c-8.32203207 0-8.32203207 0-8.32203093 8.32203208L179.11872967 633.66095189c-8.32203207 0 0 0 0 0z m740.66082588-674.08457045H104.22044445c-8.32203207 0-8.32203207 0-8.32203208 8.32203093V325.74577778c0 8.32203207 0 8.32203207 8.32203208 8.32203207h815.5591111c8.32203207 0 8.32203207 0 8.32203208-8.32203207l-8.32203208-366.16939634c8.32203207 8.32203207 8.32203207 0 0 0zM245.69498397 159.30514317999996h457.7117457c8.32203207 0 8.32203207 0 8.32203207-8.32203207v-58.25422222c0-8.32203207 0-8.32203207 8.32203207-8.32203207h66.5762543c8.32203207 0 8.32203207 0 8.32203093 8.32203207V292.45765063c0 8.32203207 0 8.32203207-8.32203093 8.32203207h-66.5762543c-8.32203207 0-8.32203207 0-8.32203207-8.32203207v-58.25422222c0-8.32203207-8.32203207-8.32203207-8.32203207-8.32203207H245.69498397s-8.32203207 0-8.32203208 8.32203207v58.25422222c0 8.32203207 0 8.32203207-8.32203093 8.32203207h-58.25422222c-8.32203207 0-8.32203207 0-8.32203207-8.32203207v-199.72876174c0-8.32203207 0-8.32203207 8.32203207-8.32203207h66.57625315c8.32203207 0 8.32203207 0 8.32203208 8.32203207v66.57625429c-8.32203207 0 0 0 0 0zM437.10171477 716.88127033h-74.89828636s-8.32203207 0-8.32203207-8.32203207v-58.25422223c0-8.32203207 8.32203207-8.32203207 8.32203207-8.32203206H428.7796827c8.32203207 0 16.64406301 0 16.64406301 8.32203206L437.10171477 716.88127033c8.32203207 0 0 0 0 0z m-74.89828636-208.05079382H428.7796827c8.32203207 0 16.64406301 0 16.64406301 8.32203094v58.25422222c0 8.32203207-8.32203207 8.32203207-8.32203094 8.32203207h-74.89828636s-8.32203207 0-8.32203207-8.32203207l8.32203207-66.57625316c-8.32203207 0 0 0 0 0z m166.4406346 141.47453952h224.69485795c8.32203207 0 8.32203207 0 8.32203093 8.32203208v49.93219015c0 8.32203207 0 8.32203207-8.32203093 8.32203207H528.64406301c-8.32203207 0-8.32203207 0-8.32203094-8.32203207l8.32203094-58.25422223c-8.32203207 0-8.32203207 0 0 0z m0-141.47453952h224.69485795c8.32203207 0 8.32203207 0 8.32203093 8.32203094v58.25422222c0 8.32203207 0 8.32203207-8.32203093 8.32203207H528.64406301c-8.32203207 0-8.32203207 0-8.32203094-8.32203207l8.32203094-66.57625316c-8.32203207 0-8.32203207 0 0 0z"  horiz-adv-x="1024" />

    
    <glyph glyph-name="pinpaiguanli" unicode="&#58907;" d="M987.91619093 540.0380949299999l-148.23619093 273.06666667c-7.80190507 7.80190507-7.80190507 7.80190507-15.60380907 7.80190507H192.12190507c-7.80190507 0-7.80190507-7.80190507-15.60381014-7.80190507L28.28190507 547.8399999999999c0-7.80190507 0-15.60380907 7.801904-15.60380907l452.5104768-577.34095253c7.80190507-15.60380907 31.2076192-15.60380907 46.81142826 0l452.5104768 577.34095253V540.0380949299999zM590.01904747 766.29333333l70.21714346-195.0476192H355.96190507l70.2171424 195.0476192H590.01904747z m-374.49142827 0H355.96190507l-70.21714347-195.0476192H114.1028576l101.4247616 195.0476192zM129.70666667 508.83047573h163.84l132.6323808-382.29333333-296.4723808 382.29333333zM512 71.92380906999995L355.96190507 508.83047573h304.27428586L512 71.92380906999995z m78.01904747 54.61333333l132.6323808 390.0952384h163.84l-296.4723808-390.0952384z m140.43428586 444.70857173l-70.2171424 195.0476192h140.4342848L902.0952384 571.24571413H730.45333333z"  horiz-adv-x="1024" />

    
    <glyph glyph-name="qianzaishengguanli" unicode="&#58908;" d="M811.885714-3.657143H219.428571c-65.828571 0-117.028571 51.2-117.028571 117.028572V647.314286c0 65.828571 51.2 117.028571 117.028571 117.028571h592.457143c65.828571 0 117.028571-51.2 117.028572-117.028571v-533.942857c-7.314286-58.514286-51.2-117.028571-117.028572-117.028572z m-533.942857 117.028572C292.571429 149.942857 365.714286 347.428571 365.714286 354.742857c-14.628571 7.314286-43.885714 14.628571-43.885715 14.628572l-109.714285-219.428572s43.885714-29.257143 65.828571-36.571428z m-73.142857 380.342857c14.628571-14.628571 87.771429-65.828571 102.4-80.457143l36.571429 36.571428C329.142857 471.771429 256 530.285714 241.371429 544.914286l-36.571429-51.2z m51.2 204.8l-29.257143-51.2c29.257143-21.942857 80.457143-73.142857 95.085714-80.457143l36.571429 43.885714c-7.314286 7.314286-87.771429 80.457143-102.4 87.771429z m321.828571-153.6H490.057143V603.428571h65.828571v36.571429h-65.828571v65.828571s-29.257143 0-43.885714 7.314286v-73.142857h-58.514286v-43.885714c7.314286 7.314286 51.2 7.314286 65.828571 7.314285v-58.514285H358.4v-43.885715h95.085714s0-36.571429-95.085714-124.342857c7.314286 0 21.942857-7.314286 29.257143-21.942857 43.885714 36.571429 65.828571 73.142857 80.457143 109.714286 14.628571-7.314286 29.257143-21.942857 36.571428-29.257143 7.314286-14.628571 21.942857-21.942857 29.257143-36.571429l29.257143 29.257143c-7.314286 7.314286-21.942857 21.942857-36.571429 29.257143-29.257143 36.571429-36.571429 43.885714-36.571428 43.885714h87.771428v43.885715z m124.342858-43.885715H804.571429v43.885715c-29.257143-7.314286-65.828571-7.314286-117.028572-7.314286v58.514286h87.771429v51.2c-14.628571 0-80.457143-7.314286-80.457143-7.314286l7.314286 73.142857h-51.2c0-7.314286 7.314286-73.142857 7.314285-73.142857h-65.828571V603.428571H658.285714v-58.514285h-65.828571v-43.885715h58.514286c-29.257143-58.514286-80.457143-102.4-95.085715-109.714285 7.314286 0 21.942857 0 29.257143-7.314286 7.314286 0 14.628571-7.314286 21.942857-14.628571H431.542857v-263.314286h58.514286v7.314286h219.428571v-7.314286h58.514286V369.371429H614.4c7.314286 7.314286 51.2 43.885714 73.142857 102.4 21.942857-43.885714 80.457143-87.771429 102.4-109.714286 7.314286 7.314286 7.314286 14.628571 14.628572 21.942857 7.314286 7.314286 14.628571 7.314286 21.942857 14.628571-80.457143 43.885714-124.342857 102.4-124.342857 102.4z m0-226.742857h-219.428572v51.2h219.428572v-51.2z m0-102.4h-219.428572v58.514286h219.428572v-58.514286z"  horiz-adv-x="1024" />

    
    <glyph glyph-name="shenheguanli" unicode="&#58909;" d="M512 866.742857C248.685714 866.742857 29.257143 647.314286 29.257143 384s212.114286-482.742857 482.742857-482.742857 482.742857 212.114286 482.742857 482.742857c0 263.314286-219.428571 482.742857-482.742857 482.742857z m0-892.342857c-226.742857 0-409.6 182.857143-409.6 409.6 0 226.742857 182.857143 409.6 409.6 409.6 226.742857 0 409.6-182.857143 409.6-409.6s-182.857143-409.6-409.6-409.6zM716.8 537.6c-7.314286 0-14.628571-7.314286-21.942857-7.314286L512 347.428571l-65.828571-65.828571-131.657143 124.342857c-7.314286 7.314286-14.628571 7.314286-21.942857 7.314286-7.314286 0-14.628571-7.314286-21.942858-7.314286-14.628571-14.628571-14.628571-36.571429 0-43.885714l146.285715-146.285714c7.314286-14.628571 14.628571-14.628571 21.942857-14.628572 7.314286 0 14.628571 0 21.942857 7.314286l87.771429 87.771428L731.428571 479.085714c14.628571 14.628571 14.628571 29.257143 0 43.885715 0 7.314286-7.314286 14.628571-14.628571 14.628571z"  horiz-adv-x="1024" />

    
    <glyph glyph-name="shenpiguanli" unicode="&#58910;" d="M896-31.744000000000028H128c-17.408 0-31.744 14.336-31.744 31.744s14.336 31.744 31.744 31.744h768c17.408 0 31.744-14.336 31.744-31.744s-14.336-31.744-31.744-31.744z m0 128H128c-17.408 0-31.744 14.336-31.744 31.744v159.744c0 52.736 43.008 96.256 96.256 96.256h204.8c-6.144 38.4-25.6 75.264-52.736 107.008C307.2 532.992 287.744 585.7280000000001 287.744 640c0 60.928 24.064 118.272 68.608 161.792s102.4 64 164.864 62.464c115.2-4.608 212.992-103.936 214.528-219.136 1.536-57.344-20.992-113.664-59.392-156.672-27.136-28.672-43.008-64-49.664-103.936h204.8c52.736 0 96.256-43.008 96.256-96.256V128c0-17.408-14.336-31.744-31.744-31.744zM159.744 159.74400000000003h704v128c0 17.408-14.336 31.744-31.744 31.744h-240.128c-17.408 0-31.744 14.336-31.744 31.744 0 67.072 24.064 131.072 68.608 179.2 28.672 30.208 43.008 70.656 43.008 112.128-1.536 82.944-70.656 153.6-153.6 156.672-45.056 1.536-86.528-14.336-116.736-45.056-31.744-30.208-49.664-72.192-49.664-115.2 0-38.4 14.336-76.8 39.936-105.472 46.592-52.736 72.192-116.736 72.192-182.272 0-17.408-14.336-31.744-31.744-31.744H192c-17.408 0-31.744-14.336-31.744-31.744v-128z"  horiz-adv-x="1024" />

    
    <glyph glyph-name="shoufeibiaozhunguanli" unicode="&#58911;" d="M946.176 717.824c6.144 0 11.264-6.656 11.264-14.336v-680.96c0-7.68-5.12-14.336-11.264-14.336H72.192c-6.144 0-11.264 6.656-11.264 14.336v680.96c0 7.68 5.12 14.336 11.264 14.336h873.984m0 51.2H72.192c-34.304 0-62.464-29.184-62.464-65.536v-680.96c0-36.352 28.16-65.536 62.464-65.536h873.984c34.304 0 62.464 29.184 62.464 65.536v680.96c0 36.352-27.648 65.536-62.464 65.536zM60.928 573.952h897.536v-62.464H60.928V573.952zM288.768 230.912H113.152V469.504h176.128l-0.512-238.592z m-124.928 51.2h73.728V418.304H163.84v-136.192zM118.784 183.808h124.928v-62.464H118.784v62.464zM337.408 183.808h124.928v-62.464H337.408v62.464zM555.52 183.808h124.928v-62.464h-124.928v62.464zM773.632 183.808h124.928v-62.464h-124.928v62.464z"  horiz-adv-x="1024" />

    
    <glyph glyph-name="ruyuanfenbanguanli" unicode="&#58912;" d="M995.71809493 532.23619093c-7.80190507 7.80190507-7.80190507 7.80190507 0 0L746.0571424 820.90666667c-15.60380907 15.60380907-31.2076192 23.40571413-46.81142827 23.40571413-23.40571413 0-39.00952427-7.80190507-46.81142826-23.40571413-15.60380907-15.60380907-23.40571413-31.2076192-23.40571414-46.81142827v-124.8304768H543.2076192c-23.40571413 0-39.00952427-15.60380907-39.00952427-39.0095232s15.60380907-39.00952427 39.00952427-39.00952427H668.03809493c23.40571413 0 39.00952427 15.60380907 39.00952427 39.00952427v156.03809493l241.85904747-280.86857173v-15.60380907L707.0476192 188.95238080000001V352.79238080000005c0 23.40571413-15.60380907 39.00952427-39.00952427 39.00952427H379.3676192V524.4342858699999c0 39.00952427-31.2076192 62.4152384-62.4152384 62.4152384-23.40571413 0-39.00952427-7.80190507-46.81142827-23.4057152L28.28190507 282.5752384c-23.40571413-31.2076192-23.40571413-62.4152384 0-93.6228576L270.14095253-84.11428587c15.60380907-15.60380907 31.2076192-23.40571413 46.81142827-23.40571413 23.40571413 0 39.00952427 7.80190507 46.81142827 23.40571413 15.60380907 15.60380907 23.40571413 31.2076192 23.4057152 46.81142827v124.8304768h93.62285653c23.40571413 0 39.00952427 15.60380907 39.00952427 39.0095232s-15.60380907 39.00952427-39.00952427 39.00952427H355.96190507c-23.40571413 0-39.00952427-15.60380907-39.00952427-39.00952427V-21.699047469999982L75.09333333 251.36761920000004v15.60380907l241.85904747 280.86857173V384c0-23.40571413 15.60380907-39.00952427 39.00952427-39.00952427h288.67047573v-132.6323808c0-39.00952427 31.2076192-62.4152384 62.4152384-62.41523733 23.40571413 0 39.00952427 7.80190507 46.81142827 23.40571413l241.85904746 280.86857067c23.40571413 15.60380907 23.40571413 62.4152384 0 78.01904853z"  horiz-adv-x="1024" />

    
    <glyph glyph-name="shoufeiguanli" unicode="&#58914;" d="M658.285714 252.342857c21.942857 0 43.885714-14.628571 43.885715-36.571428s-21.942857-43.885714-43.885715-43.885715H555.885714v-102.4c0-21.942857-14.628571-43.885714-36.571428-43.885714s-43.885714 14.628571-43.885715 36.571429V179.2H365.714286c-21.942857 0-43.885714 21.942857-43.885715 43.885714s14.628571 36.571429 43.885715 36.571429h109.714285v58.514286H365.714286c-29.257143-7.314286-43.885714 14.628571-51.2 36.571428 7.314286 29.257143 21.942857 43.885714 51.2 43.885714h58.514285l-21.942857 43.885715-29.257143 51.2c-7.314286 21.942857 0 43.885714 14.628572 58.514285 21.942857 7.314286 43.885714 0 51.2-21.942857l21.942857-43.885714 21.942857-43.885714 21.942857-43.885715 21.942857 43.885715 21.942858 43.885714 21.942857 43.885714c7.314286 21.942857 36.571429 29.257143 58.514285 21.942857 21.942857-14.628571 29.257143-36.571429 14.628572-58.514285l-14.628572-51.2-21.942857-43.885715h58.514286c21.942857 0 43.885714-21.942857 43.885714-43.885714s-21.942857-36.571429-43.885714-36.571428H555.885714v-58.514286l102.4-7.314286z m285.257143 438.857143H80.457143c-21.942857 0-43.885714-14.628571-43.885714-36.571429v-702.171428c0-21.942857 14.628571-43.885714 43.885714-51.2h863.085714c21.942857 0 43.885714 21.942857 43.885714 43.885714V647.314286c0 21.942857-14.628571 43.885714-43.885714 43.885714 7.314286 0 0 0 0 0zM153.6 778.971429H877.714286c21.942857 0 43.885714 14.628571 43.885714 36.571428s-21.942857 43.885714-43.885714 43.885714H153.6c-29.257143 0-43.885714-14.628571-43.885714-36.571428 0-29.257143 14.628571-43.885714 43.885714-43.885714z"  horiz-adv-x="1024" />

    
    <glyph glyph-name="kaibanjihuashenhe" unicode="&#58915;" d="M704 799.744h-96.256v-64h96.256V799.744z m128 64.512H768v-192h64V864.256z m-288.256 0H480.256v-192h64V864.256zM256 864.256H192v-192H256V864.256z m159.744-64.512H320v-64h96.256V799.744z m480.256 0v-64h64v-128h-896v128H128V799.744H0v-896h1024v896h-128z m64-831.488h-896V543.744h896v-575.488zM444.928 57.344l44.544 45.056 316.928 316.928-45.056 44.544-316.928-316.928-182.272 182.272-45.056-44.544L399.872 102.4l45.056-45.056z"  horiz-adv-x="1024" />

    
    <glyph glyph-name="shoutuifeibiaozhunguanli" unicode="&#58916;" d="M760.685714 683.885714c0 21.942857-14.628571 36.571429-36.571428 36.571429H643.657143v-36.571429c0-21.942857-14.628571-36.571429-36.571429-36.571428h-292.571428c-21.942857 0-36.571429 14.628571-36.571429 36.571428v36.571429H175.542857c-14.628571 0-29.257143-14.628571-29.257143-36.571429v-636.342857c0-14.628571 14.628571-29.257143 29.257143-29.257143h270.628572l73.142857-73.142857H146.285714c-36.571429 0-73.142857 36.571429-73.142857 73.142857V720.457143c0 36.571429 36.571429 65.828571 73.142857 65.828571h138.971429c-7.314286 21.942857 14.628571 36.571429 29.257143 36.571429h292.571428c21.942857 0 36.571429-14.628571 36.571429-36.571429h117.028571c36.571429 0 65.828571-29.257143 65.828572-65.828571v-307.2l-65.828572-73.142857V683.885714zM607.085714 449.828571H299.885714c-7.314286 0-21.942857 7.314286-21.942857 14.628572v21.942857c0 7.314286 7.314286 14.628571 14.628572 14.628571h307.2c7.314286 0 14.628571-7.314286 14.628571-14.628571v-14.628571c7.314286-14.628571 0-21.942857-7.314286-21.942858z m14.628572-168.228571c0-7.314286-7.314286-14.628571-14.628572-14.628571H299.885714c-7.314286 0-21.942857 7.314286-21.942857 14.628571v21.942857c0 7.314286 14.628571 14.628571 21.942857 14.628572h307.2c7.314286 0 14.628571-7.314286 14.628572-14.628572v-21.942857z m-146.285715-102.4l124.342858-109.714286L950.857143 420.571429 607.085714-54.857143l-175.542857 190.171429 43.885714 43.885714z"  horiz-adv-x="1024" />

    
    <glyph glyph-name="shougongjiezhang" unicode="&#58917;" d="M402.285714-84.114286l-234.057143 292.571429s-14.628571 109.714286 95.085715 65.828571c58.514286-29.257143 80.457143-80.457143 80.457143-80.457143v438.857143s65.828571 95.085714 117.028571 0v-277.942857s65.828571 95.085714 146.285714-7.314286c0 0 58.514286 102.4 146.285715-7.314285 0 0 58.514286 117.028571 117.028571-7.314286v-351.085714s0-29.257143-51.2-58.514286l-416.914286-7.314286zM409.6 852.114286C277.942857 852.114286 175.542857 749.714286 175.542857 618.057143 175.542857 530.285714 219.428571 457.142857 292.571429 413.257143v73.142857c-36.571429 29.257143-58.514286 80.457143-58.514286 131.657143 0 95.085714 80.457143 175.542857 175.542857 175.542857C504.685714 793.6 585.142857 713.142857 585.142857 618.057143c0-51.2-21.942857-95.085714-58.514286-131.657143v-73.142857C592.457143 457.142857 643.657143 530.285714 643.657143 618.057143 643.657143 749.714286 533.942857 852.114286 409.6 852.114286z"  horiz-adv-x="1024" />

    
    <glyph glyph-name="shoutuifeiguanli" unicode="&#58918;" d="M512 757.028571l329.142857-256h-65.828571c-14.628571 0-21.942857-14.628571-21.942857-21.942857v-475.428571H285.257143V471.771429c0 14.628571-14.628571 21.942857-21.942857 21.942857h-65.828572L512 757.028571z m-438.857143-292.571428c7.314286-14.628571 21.942857-21.942857 21.942857-21.942857H219.428571v-438.857143c0-36.571429 21.942857-58.514286 51.2-58.514286h482.742858c29.257143 0 51.2 21.942857 51.2 58.514286V449.828571h124.342857s14.628571 0 21.942857 14.628572c0 14.628571 0 21.942857-14.628572 29.257143L526.628571 815.542857S519.314286 822.857143 512 822.857143s-14.628571 0-21.942857-7.314286L73.142857 493.714286v-29.257143zM614.4 362.057143c14.628571 0 21.942857 7.314286 21.942857 21.942857s-14.628571 21.942857-21.942857 21.942857h-58.514286l65.828572 65.828572c7.314286 14.628571 7.314286 21.942857 0 29.257142-14.628571 7.314286-21.942857 7.314286-29.257143 0l-73.142857-87.771428-73.142857 80.457143c-7.314286 14.628571-21.942857 14.628571-21.942858 7.314285-14.628571-7.314286-14.628571-21.942857 0-29.257142l51.2-65.828572h-58.514285c-21.942857 0-29.257143-14.628571-29.257143-21.942857 0-14.628571 14.628571-21.942857 21.942857-21.942857h80.457143v-43.885714H409.6c-14.628571 0-21.942857-7.314286-21.942857-21.942858 0-14.628571 14.628571-21.942857 21.942857-21.942857h80.457143v-58.514285c0-7.314286 7.314286-21.942857 21.942857-21.942858 14.628571 0 21.942857 14.628571 21.942857 21.942858v65.828571h87.771429c0-7.314286 14.628571 7.314286 14.628571 21.942857 0 14.628571-14.628571 21.942857-21.942857 21.942857H533.942857v29.257143l80.457143 7.314286z"  horiz-adv-x="1024" />

    
    <glyph glyph-name="tuifeicaozuo" unicode="&#58919;" d="M21.00012715 59.44076173999997c0 41.61015922 16.64406301 74.89828523 41.61015808 108.18641237L287.30514318 384v8.32203207C270.66107904 425.61015922 262.33904811 467.2203173 262.33904811 500.50844445c0 191.40672967 158.11860366 357.84736541 357.84736426 357.8473654 49.93219015 0 99.86438144-8.32203207 141.47453952-33.28812715l16.64406414-8.32203207h8.32203208l8.32203093-8.32203207s0-8.32203207-8.32203093-8.32203093L578.57625429 592.05079381l133.15250745-133.15250858 208.05079381 208.05079381c8.32203207 8.32203207 8.32203207 8.32203207 16.64406301 0l8.32203207-16.64406301c16.64406301-41.61015922 24.96609507-91.54234937 24.96609508-141.47453952 0-191.40672967-158.11860366-357.84736541-357.84736427-357.8473654-41.61015922 0-83.2203173 8.32203207-116.50844445 16.644063h-8.32203206l-216.37282589-216.37282474c-58.25422222-58.25422222-149.79657159-58.25422222-208.05079381 0-24.96609507 33.28812715-41.61015922 66.57625429-41.61015808 108.18641237m83.2203173 66.57625429c-16.64406301-16.64406301-24.96609507-41.61015922-24.96609508-66.57625429 0-24.96609507 8.32203207-49.93219015 24.96609508-66.57625429 33.28812715-33.28812715 91.54234937-33.28812715 133.15250744 0l249.66095304 241.33892096 16.644063-8.32203207c41.61015922-16.64406301 74.89828523-24.96609507 116.50844444-24.96609508 166.44063459 0 299.59314318 133.15250745 299.59314318 299.59314319 0 24.96609507 0 41.61015922-8.32203206 66.57625429v8.32203093L711.72876174 392.32203207c-8.32203207-8.32203207-16.64406301 0-16.644063 0L503.67796793 583.72876174v8.32203207 8.32203208l191.40673081 191.40672966-8.32203207 8.32203208h-66.5762543c-166.44063459 0-299.59314318-133.15250745-299.59314204-299.59314318 0-33.28812715 8.32203207-74.89828523 24.96609508-116.50844445v-16.64406301l-241.33892096-241.33892096m0 0z"  horiz-adv-x="1024" />

    
    <glyph glyph-name="tuifeiguanli" unicode="&#58920;" d="M526.628571 413.257143h-65.828571v29.257143L548.571429 530.285714c14.628571 14.628571 14.628571 36.571429 0 51.2-14.628571 7.314286-36.571429 7.314286-51.2-7.314285l-73.142858-73.142858-73.142857 73.142858c-14.628571 14.628571-36.571429 14.628571-51.2 0-7.314286-14.628571-7.314286-29.257143 7.314286-43.885715l87.771429-87.771428v-29.257143h-65.828572c-21.942857 0-36.571429-7.314286-36.571428-29.257143s14.628571-36.571429 36.571428-36.571429h65.828572v-65.828571c0-21.942857 14.628571-36.571429 36.571428-36.571429s36.571429 14.628571 36.571429 36.571429v65.828571h65.828571c21.942857 0 36.571429 14.628571 36.571429 36.571429-7.314286 21.942857-21.942857 29.257143-43.885715 29.257143zM906.971429 405.942857V654.628571c0 58.514286-43.885714 102.4-102.4 102.4H124.342857C65.828571 757.028571 21.942857 713.142857 21.942857 654.628571v-475.428571c0-58.514286 43.885714-102.4 102.4-102.4h453.485714c43.885714-58.514286 117.028571-102.4 190.171429-102.4 131.657143 0 241.371429 102.4 241.371429 241.371429 0 80.457143-43.885714 146.285714-102.4 190.171428z m-365.714286-256H124.342857c-21.942857 0-36.571429 14.628571-36.571428 36.571429V654.628571c0 21.942857 14.628571 36.571429 36.571428 36.571429H804.571429c21.942857 0 36.571429-14.628571 36.571428-36.571429v-212.114285c-7.314286 0-36.571429 7.314286-65.828571 7.314285-131.657143 0-241.371429-102.4-241.371429-241.371428-7.314286-7.314286 0-51.2 7.314286-58.514286z m226.742857-109.714286c-73.142857 0-131.657143 43.885714-153.6 102.4 0 7.314286-14.628571 29.257143-14.628571 65.828572 0 95.085714 73.142857 168.228571 168.228571 168.228571 29.257143 0 51.2-7.314286 65.828571-14.628571 58.514286-29.257143 102.4-87.771429 102.4-153.6 0-95.085714-73.142857-168.228571-168.228571-168.228572zM833.828571 245.028571H702.171429c-21.942857 0-36.571429-14.628571-36.571429-36.571428s14.628571-36.571429 36.571429-36.571429h138.971428c21.942857 0 36.571429 14.628571 36.571429 36.571429s-21.942857 36.571429-43.885715 36.571428z"  horiz-adv-x="1024" />

    
    </font>
</defs>
</svg>
